<svg id="my-svg" width="100%" xmlns="http://www.w3.org/2000/svg" xmlns:xlink="http://www.w3.org/1999/xlink" class="flowchart" style="max-width: 1353.08px; background-color: white;" viewBox="0 0 1353.078125 1759.671875" role="graphics-document document" aria-roledescription="flowchart-v2"><style>#my-svg{font-family:Segoe UI;font-size:16px;fill:#333;}@keyframes edge-animation-frame{from{stroke-dashoffset:0;}}@keyframes dash{to{stroke-dashoffset:0;}}#my-svg .edge-animation-slow{stroke-dasharray:9,5!important;stroke-dashoffset:900;animation:dash 50s linear infinite;stroke-linecap:round;}#my-svg .edge-animation-fast{stroke-dasharray:9,5!important;stroke-dashoffset:900;animation:dash 20s linear infinite;stroke-linecap:round;}#my-svg .error-icon{fill:#552222;}#my-svg .error-text{fill:#552222;stroke:#552222;}#my-svg .edge-thickness-normal{stroke-width:1px;}#my-svg .edge-thickness-thick{stroke-width:3.5px;}#my-svg .edge-pattern-solid{stroke-dasharray:0;}#my-svg .edge-thickness-invisible{stroke-width:0;fill:none;}#my-svg .edge-pattern-dashed{stroke-dasharray:3;}#my-svg .edge-pattern-dotted{stroke-dasharray:2;}#my-svg .marker{fill:#333333;stroke:#333333;}#my-svg .marker.cross{stroke:#333333;}#my-svg svg{font-family:Segoe UI;font-size:16px;}#my-svg p{margin:0;}#my-svg .label{font-family:Segoe UI;color:#333;}#my-svg .cluster-label text{fill:#333;}#my-svg .cluster-label span{color:#333;}#my-svg .cluster-label span p{background-color:transparent;}#my-svg .label text,#my-svg span{fill:#333;color:#333;}#my-svg .node rect,#my-svg .node circle,#my-svg .node ellipse,#my-svg .node polygon,#my-svg .node path{fill:#ECECFF;stroke:#9370DB;stroke-width:1px;}#my-svg .rough-node .label text,#my-svg .node .label text,#my-svg .image-shape .label,#my-svg .icon-shape .label{text-anchor:middle;}#my-svg .node .katex path{fill:#000;stroke:#000;stroke-width:1px;}#my-svg .rough-node .label,#my-svg .node .label,#my-svg .image-shape .label,#my-svg .icon-shape .label{text-align:center;}#my-svg .node.clickable{cursor:pointer;}#my-svg .root .anchor path{fill:#333333!important;stroke-width:0;stroke:#333333;}#my-svg .arrowheadPath{fill:#333333;}#my-svg .edgePath .path{stroke:#333333;stroke-width:1px;}#my-svg .flowchart-link{stroke:#333333;fill:none;}#my-svg .edgeLabel{background-color:rgba(232,232,232, 0.8);text-align:center;}#my-svg .edgeLabel p{background-color:rgba(232,232,232, 0.8);}#my-svg .edgeLabel rect{opacity:0.5;background-color:rgba(232,232,232, 0.8);fill:rgba(232,232,232, 0.8);}#my-svg .labelBkg{background-color:rgba(232, 232, 232, 0.5);}#my-svg .cluster rect{fill:#ffffde;stroke:#aaaa33;stroke-width:1px;}#my-svg .cluster text{fill:#333;}#my-svg .cluster span{color:#333;}#my-svg div.mermaidTooltip{position:absolute;text-align:center;max-width:200px;padding:2px;font-family:Segoe UI;font-size:12px;background:hsl(80, 100%, 96.2745098039%);border:1px solid #aaaa33;border-radius:2px;pointer-events:none;z-index:100;}#my-svg .flowchartTitleText{text-anchor:middle;font-size:18px;fill:#333;}#my-svg rect.text{fill:none;stroke-width:0;}#my-svg .icon-shape,#my-svg .image-shape{background-color:rgba(232,232,232, 0.8);text-align:center;}#my-svg .icon-shape p,#my-svg .image-shape p{background-color:rgba(232,232,232, 0.8);padding:2px;}#my-svg .icon-shape .label rect,#my-svg .image-shape .label rect{opacity:0.5;background-color:rgba(232,232,232, 0.8);fill:rgba(232,232,232, 0.8);}#my-svg .label-icon{display:inline-block;height:1em;overflow:visible;vertical-align:-0.125em;}#my-svg .node .label-icon path{fill:currentColor;stroke:revert;stroke-width:revert;}#my-svg .node .neo-node{stroke:#9370DB;}#my-svg [data-look="neo"].node rect,#my-svg [data-look="neo"].cluster rect,#my-svg [data-look="neo"].node polygon{stroke:#9370DB;filter:drop-shadow(1px 2px 2px rgba(185, 185, 185, 1));}#my-svg [data-look="neo"].node path{stroke:#9370DB;stroke-width:1px;}#my-svg [data-look="neo"].node .outer-path{filter:drop-shadow(1px 2px 2px rgba(185, 185, 185, 1));}#my-svg [data-look="neo"].node .neo-line path{stroke:#9370DB;filter:none;}#my-svg [data-look="neo"].node circle{stroke:#9370DB;filter:drop-shadow(1px 2px 2px rgba(185, 185, 185, 1));}#my-svg [data-look="neo"].node circle .state-start{fill:#000000;}#my-svg [data-look="neo"].icon-shape .icon{fill:#9370DB;filter:drop-shadow(1px 2px 2px rgba(185, 185, 185, 1));}#my-svg [data-look="neo"].icon-shape .icon-neo path{stroke:#9370DB;filter:drop-shadow(1px 2px 2px rgba(185, 185, 185, 1));}#my-svg :root{--mermaid-font-family:"trebuchet ms",verdana,arial,sans-serif;}#my-svg .actor&gt;*{fill:#fff8e7!important;stroke:#a07a14!important;color:#5a4400!important;}#my-svg .actor span{fill:#fff8e7!important;stroke:#a07a14!important;color:#5a4400!important;}#my-svg .actor tspan{fill:#5a4400!important;}#my-svg .ext&gt;*{fill:#eef2ff!important;stroke:#5a6acf!important;color:#1a1f4a!important;}#my-svg .ext span{fill:#eef2ff!important;stroke:#5a6acf!important;color:#1a1f4a!important;}#my-svg .ext tspan{fill:#1a1f4a!important;}#my-svg .uc&gt;*{fill:#f4faf6!important;stroke:#2e8b57!important;color:#0b3d1e!important;}#my-svg .uc span{fill:#f4faf6!important;stroke:#2e8b57!important;color:#0b3d1e!important;}#my-svg .uc tspan{fill:#0b3d1e!important;}</style><g><marker id="my-svg_flowchart-v2-pointEnd" class="marker flowchart-v2" viewBox="0 0 10 10" refX="5" refY="5" markerUnits="userSpaceOnUse" markerWidth="8" markerHeight="8" orient="auto"><path d="M 0 0 L 10 5 L 0 10 z" class="arrowMarkerPath" style="stroke-width: 1; stroke-dasharray: 1, 0;"/></marker><marker id="my-svg_flowchart-v2-pointStart" class="marker flowchart-v2" viewBox="0 0 10 10" refX="4.5" refY="5" markerUnits="userSpaceOnUse" markerWidth="8" markerHeight="8" orient="auto"><path d="M 0 5 L 10 10 L 10 0 z" class="arrowMarkerPath" style="stroke-width: 1; stroke-dasharray: 1, 0;"/></marker><marker id="my-svg_flowchart-v2-pointEnd-margin" class="marker flowchart-v2" viewBox="0 0 11.5 14" refX="11.5" refY="7" markerUnits="userSpaceOnUse" markerWidth="10.5" markerHeight="14" orient="auto"><path d="M 0 0 L 11.5 7 L 0 14 z" class="arrowMarkerPath" style="stroke-width: 0; stroke-dasharray: 1, 0;"/></marker><marker id="my-svg_flowchart-v2-pointStart-margin" class="marker flowchart-v2" viewBox="0 0 11.5 14" refX="1" refY="7" markerUnits="userSpaceOnUse" markerWidth="11.5" markerHeight="14" orient="auto"><polygon points="0,7 11.5,14 11.5,0" class="arrowMarkerPath" style="stroke-width: 0; stroke-dasharray: 1, 0;"/></marker><marker id="my-svg_flowchart-v2-circleEnd" class="marker flowchart-v2" viewBox="0 0 10 10" refX="11" refY="5" markerUnits="userSpaceOnUse" markerWidth="11" markerHeight="11" orient="auto"><circle cx="5" cy="5" r="5" class="arrowMarkerPath" style="stroke-width: 1; stroke-dasharray: 1, 0;"/></marker><marker id="my-svg_flowchart-v2-circleStart" class="marker flowchart-v2" viewBox="0 0 10 10" refX="-1" refY="5" markerUnits="userSpaceOnUse" markerWidth="11" markerHeight="11" orient="auto"><circle cx="5" cy="5" r="5" class="arrowMarkerPath" style="stroke-width: 1; stroke-dasharray: 1, 0;"/></marker><marker id="my-svg_flowchart-v2-circleEnd-margin" class="marker flowchart-v2" viewBox="0 0 10 10" refY="5" refX="12.25" markerUnits="userSpaceOnUse" markerWidth="14" markerHeight="14" orient="auto"><circle cx="5" cy="5" r="5" class="arrowMarkerPath" style="stroke-width: 0; stroke-dasharray: 1, 0;"/></marker><marker id="my-svg_flowchart-v2-circleStart-margin" class="marker flowchart-v2" viewBox="0 0 10 10" refX="-2" refY="5" markerUnits="userSpaceOnUse" markerWidth="14" markerHeight="14" orient="auto"><circle cx="5" cy="5" r="5" class="arrowMarkerPath" style="stroke-width: 0; stroke-dasharray: 1, 0;"/></marker><marker id="my-svg_flowchart-v2-crossEnd" class="marker cross flowchart-v2" viewBox="0 0 11 11" refX="12" refY="5.2" markerUnits="userSpaceOnUse" markerWidth="11" markerHeight="11" orient="auto"><path d="M 1,1 l 9,9 M 10,1 l -9,9" class="arrowMarkerPath" style="stroke-width: 2; stroke-dasharray: 1, 0;"/></marker><marker id="my-svg_flowchart-v2-crossStart" class="marker cross flowchart-v2" viewBox="0 0 11 11" refX="-1" refY="5.2" markerUnits="userSpaceOnUse" markerWidth="11" markerHeight="11" orient="auto"><path d="M 1,1 l 9,9 M 10,1 l -9,9" class="arrowMarkerPath" style="stroke-width: 2; stroke-dasharray: 1, 0;"/></marker><marker id="my-svg_flowchart-v2-crossEnd-margin" class="marker cross flowchart-v2" viewBox="0 0 15 15" refX="17.7" refY="7.5" markerUnits="userSpaceOnUse" markerWidth="12" markerHeight="12" orient="auto"><path d="M 1,1 L 14,14 M 1,14 L 14,1" class="arrowMarkerPath" style="stroke-width: 2.5;"/></marker><marker id="my-svg_flowchart-v2-crossStart-margin" class="marker cross flowchart-v2" viewBox="0 0 15 15" refX="-3.5" refY="7.5" markerUnits="userSpaceOnUse" markerWidth="12" markerHeight="12" orient="auto"><path d="M 1,1 L 14,14 M 1,14 L 14,1" class="arrowMarkerPath" style="stroke-width: 2.5; stroke-dasharray: 1, 0;"/></marker><g class="root"><g class="clusters"><g class="cluster" id="my-svg-SystemBox" data-look="classic"><rect style="" x="187.984375" y="8" width="1157.09375" height="1534"/><g class="cluster-label" transform="translate(613.3125, 8)"><foreignObject width="306.4375" height="24"><div xmlns="http://www.w3.org/1999/xhtml" style="display: table-cell; white-space: nowrap; line-height: 1.5;"><span class="nodeLabel"><p>Система управления политиками доступа</p></span></div></foreignObject></g></g><g class="cluster" id="my-svg-Integ" data-look="classic"><rect style="" x="212.984375" y="88" width="310" height="196"/><g class="cluster-label" transform="translate(324.6015625, 88)"><foreignObject width="86.765625" height="24"><div xmlns="http://www.w3.org/1999/xhtml" style="display: table-cell; white-space: nowrap; line-height: 1.5;"><span class="nodeLabel"><p>Интеграция</p></span></div></foreignObject></g></g><g class="cluster" id="my-svg-SandboxBox" data-look="classic"><rect style="" x="624.03125" y="744" width="310" height="452"/><g class="cluster-label" transform="translate(738.1015625, 744)"><foreignObject width="81.859375" height="24"><div xmlns="http://www.w3.org/1999/xhtml" style="display: table-cell; white-space: nowrap; line-height: 1.5;"><span class="nodeLabel"><p>Песочница</p></span></div></foreignObject></g></g><g class="cluster" id="my-svg-Verify" data-look="classic"><rect style="" x="624.03125" y="28" width="310" height="244"/><g class="cluster-label" transform="translate(729.25, 28)"><foreignObject width="99.5625" height="24"><div xmlns="http://www.w3.org/1999/xhtml" style="display: table-cell; white-space: nowrap; line-height: 1.5;"><span class="nodeLabel"><p>Верификация</p></span></div></foreignObject></g></g><g class="cluster" id="my-svg-Exec" data-look="classic"><rect style="" x="212.984375" y="304" width="1107.09375" height="420"/><g class="cluster-label" transform="translate(721.0703125, 304)"><foreignObject width="90.921875" height="24"><div xmlns="http://www.w3.org/1999/xhtml" style="display: table-cell; white-space: nowrap; line-height: 1.5;"><span class="nodeLabel"><p>Исполнение</p></span></div></foreignObject></g></g><g class="cluster" id="my-svg-Mgmt" data-look="classic"><rect style="" x="624.03125" y="1216" width="696.046875" height="306"/><g class="cluster-label" transform="translate(881.4375, 1216)"><foreignObject width="181.234375" height="24"><div xmlns="http://www.w3.org/1999/xhtml" style="display: table-cell; white-space: nowrap; line-height: 1.5;"><span class="nodeLabel"><p>Управление политиками</p></span></div></foreignObject></g></g></g><g class="edgePaths"><path d="M396.13,1587.544L417.272,1563.287C438.415,1539.029,480.699,1490.515,510.262,1466.257C539.826,1442,556.667,1442,573.508,1442C590.349,1442,607.19,1442,624.927,1442C642.664,1442,661.297,1442,670.613,1442L679.93,1442" id="my-svg-L_M_UC1_0" class="edge-thickness-normal edge-pattern-solid edge-thickness-normal edge-pattern-solid flowchart-link" style=";" data-edge="true" data-et="edge" data-id="L_M_UC1_0" data-points="W3sieCI6Mzk2LjEyOTYxNTc3MTYxMTUsInkiOjE1ODcuNTQ0MDk2OTkxNzI0Mn0seyJ4Ijo1MjIuOTg0Mzc1LCJ5IjoxNDQyfSx7IngiOjU3My41MDc4MTI1LCJ5IjoxNDQyfSx7IngiOjYyNC4wMzEyNSwieSI6MTQ0Mn0seyJ4Ijo2ODMuOTI5Njg3NSwieSI6MTQ0Mn1d" data-look="classic" marker-end="url(#my-svg_flowchart-v2-pointEnd)"/><path d="M386.761,1581.334L409.465,1534.779C432.168,1488.223,477.576,1395.111,508.701,1348.556C539.826,1302,556.667,1302,573.508,1302C590.349,1302,607.19,1302,619.111,1302C631.031,1302,638.031,1302,641.531,1302L645.031,1302" id="my-svg-L_M_UC2_0" class="edge-thickness-normal edge-pattern-solid edge-thickness-normal edge-pattern-solid flowchart-link" style=";" data-edge="true" data-et="edge" data-id="L_M_UC2_0" data-points="W3sieCI6Mzg2Ljc2MDU2MDE1MDc1NzQsInkiOjE1ODEuMzM0MzQ3NzU3NjQ4fSx7IngiOjUyMi45ODQzNzUsInkiOjEzMDJ9LHsieCI6NTczLjUwNzgxMjUsInkiOjEzMDJ9LHsieCI6NjI0LjAzMTI1LCJ5IjoxMzAyfSx7IngiOjY0OS4wMzEyNSwieSI6MTMwMn1d" data-look="classic" marker-end="url(#my-svg_flowchart-v2-pointEnd)"/><path d="M383.009,1579.721L406.338,1517.434C429.667,1455.148,476.326,1330.574,508.076,1268.287C539.826,1206,556.667,1206,573.508,1043.167C590.349,880.333,607.19,554.667,619.139,390.763C631.089,226.86,638.146,224.72,641.675,223.65L645.203,222.58" id="my-svg-L_M_UC6_0" class="edge-thickness-normal edge-pattern-solid edge-thickness-normal edge-pattern-solid flowchart-link" style=";" data-edge="true" data-et="edge" data-id="L_M_UC6_0" data-points="W3sieCI6MzgzLjAwOTA1ODM0NDEwNzc2LCJ5IjoxNTc5LjcyMTM5NjA5Nzc0NTR9LHsieCI6NTIyLjk4NDM3NSwieSI6MTIwNn0seyJ4Ijo1NzMuNTA3ODEyNSwieSI6MTIwNn0seyJ4Ijo2MjQuMDMxMjUsInkiOjIyOX0seyJ4Ijo2NDkuMDMxMjUsInkiOjIyMS40MTkzNTQ4Mzg3MDk3fV0=" data-look="classic" marker-end="url(#my-svg_flowchart-v2-pointEnd)"/><path d="M380.444,1578.852L404.201,1500.71C427.958,1422.568,475.471,1266.284,507.648,1188.142C539.826,1110,556.667,1110,573.508,1110C590.349,1110,607.19,1110,619.111,1110C631.031,1110,638.031,1110,641.531,1110L645.031,1110" id="my-svg-L_M_UC7a_0" class="edge-thickness-normal edge-pattern-solid edge-thickness-normal edge-pattern-solid flowchart-link" style=";" data-edge="true" data-et="edge" data-id="L_M_UC7a_0" data-points="W3sieCI6MzgwLjQ0NDIzNDk5Mzg4NjIsInkiOjE1NzguODUyMTY3MTcwMzExNX0seyJ4Ijo1MjIuOTg0Mzc1LCJ5IjoxMTEwfSx7IngiOjU3My41MDc4MTI1LCJ5IjoxMTEwfSx7IngiOjYyNC4wMzEyNSwieSI6MTExMH0seyJ4Ijo2NDkuMDMxMjUsInkiOjExMTB9XQ==" data-look="classic" marker-end="url(#my-svg_flowchart-v2-pointEnd)"/><path d="M377.923,1578.169L402.1,1476.807C426.277,1375.446,474.631,1172.723,507.228,1071.361C539.826,970,556.667,970,573.508,970C590.349,970,607.19,970,620.079,970C632.969,970,641.906,970,646.375,970L650.844,970" id="my-svg-L_M_UC7b_0" class="edge-thickness-normal edge-pattern-solid edge-thickness-normal edge-pattern-solid flowchart-link" style=";" data-edge="true" data-et="edge" data-id="L_M_UC7b_0" data-points="W3sieCI6Mzc3LjkyMjg3NDQwODQ5NDA3LCJ5IjoxNTc4LjE2ODg3ODkxNjM3NDV9LHsieCI6NTIyLjk4NDM3NSwieSI6OTcwfSx7IngiOjU3My41MDc4MTI1LCJ5Ijo5NzB9LHsieCI6NjI0LjAzMTI1LCJ5Ijo5NzB9LHsieCI6NjU0Ljg0Mzc1LCJ5Ijo5NzB9XQ==" data-look="classic" marker-end="url(#my-svg_flowchart-v2-pointEnd)"/><path d="M376.233,1577.802L400.692,1453.168C425.15,1328.535,474.067,1079.267,506.946,954.634C539.826,830,556.667,830,573.508,830C590.349,830,607.19,830,619.111,830C631.031,830,638.031,830,641.531,830L645.031,830" id="my-svg-L_M_UC7c_0" class="edge-thickness-normal edge-pattern-solid edge-thickness-normal edge-pattern-solid flowchart-link" style=";" data-edge="true" data-et="edge" data-id="L_M_UC7c_0" data-points="W3sieCI6Mzc2LjIzMzMwMTY5NjkyMjksInkiOjE1NzcuODAxNzUyMDA5NDY1fSx7IngiOjUyMi45ODQzNzUsInkiOjgzMH0seyJ4Ijo1NzMuNTA3ODEyNSwieSI6ODMwfSx7IngiOjYyNC4wMzEyNSwieSI6ODMwfSx7IngiOjY0OS4wMzEyNSwieSI6ODMwfV0=" data-look="classic" marker-end="url(#my-svg_flowchart-v2-pointEnd)"/><path d="M129.804,167.565L135.334,170.638C140.864,173.71,151.924,179.855,161.621,182.928C171.318,186,179.651,186,187.984,186C196.318,186,204.651,186,212.318,186C219.984,186,226.984,186,230.484,186L233.984,186" id="my-svg-L_A_UC10_0" class="edge-thickness-normal edge-pattern-solid edge-thickness-normal edge-pattern-solid flowchart-link" style=";" data-edge="true" data-et="edge" data-id="L_A_UC10_0" data-points="W3sieCI6MTI5LjgwNDQxNzgzNzM1NjE3LCJ5IjoxNjcuNTY1MDkwMjEyNjEyMTV9LHsieCI6MTYyLjk4NDM3NSwieSI6MTg2fSx7IngiOjE4Ny45ODQzNzUsInkiOjE4Nn0seyJ4IjoyMTIuOTg0Mzc1LCJ5IjoxODZ9LHsieCI6MjM3Ljk4NDM3NSwieSI6MTg2fV0=" data-look="classic" marker-end="url(#my-svg_flowchart-v2-pointEnd)"/><path d="M124.846,96.818L131.202,92.015C137.559,87.212,150.271,77.606,160.795,72.803C171.318,68,179.651,68,187.984,68C196.318,68,204.651,68,234.651,68C264.651,68,316.318,68,367.984,68C419.651,68,471.318,68,505.572,68C539.826,68,556.667,68,573.508,68C590.349,68,607.19,68,629.35,78.105C651.51,88.21,678.988,108.42,692.728,118.525L706.467,128.63" id="my-svg-L_A_UC6_0" class="edge-thickness-normal edge-pattern-solid edge-thickness-normal edge-pattern-solid flowchart-link" style=";" data-edge="true" data-et="edge" data-id="L_A_UC6_0" data-points="W3sieCI6MTI0Ljg0NTY5NDI2ODM4NzM1LCJ5Ijo5Ni44MTgzOTM3MDUwMDUzNX0seyJ4IjoxNjIuOTg0Mzc1LCJ5Ijo2OH0seyJ4IjoxODcuOTg0Mzc1LCJ5Ijo2OH0seyJ4IjoyMTIuOTg0Mzc1LCJ5Ijo2OH0seyJ4IjozNjcuOTg0Mzc1LCJ5Ijo2OH0seyJ4Ijo1MjIuOTg0Mzc1LCJ5Ijo2OH0seyJ4Ijo1NzMuNTA3ODEyNSwieSI6Njh9LHsieCI6NjI0LjAzMTI1LCJ5Ijo2OH0seyJ4Ijo3MDkuNjg5MTQ0NzM2ODQyMSwieSI6MTMxfV0=" data-look="classic" marker-end="url(#my-svg_flowchart-v2-pointEnd)"/><path d="M371.166,1713.172L396.469,1528.477C421.772,1343.781,472.378,974.391,506.102,789.695C539.826,605,556.667,605,573.508,605C590.349,605,607.19,605,641.444,605C675.698,605,727.365,605,779.031,605C830.698,605,882.365,605,916.618,605C950.872,605,967.714,605,989.406,605.882C1011.099,606.765,1037.644,608.529,1050.916,609.411L1064.188,610.294" id="my-svg-L_LMS_UC4_0" class="edge-thickness-normal edge-pattern-solid edge-thickness-normal edge-pattern-solid flowchart-link" style=";" data-edge="true" data-et="edge" data-id="L_LMS_UC4_0" data-points="W3sieCI6MzcxLjE2NTg2NDkwMTQ0MDMsInkiOjE3MTMuMTcxODc1fSx7IngiOjUyMi45ODQzNzUsInkiOjYwNX0seyJ4Ijo1NzMuNTA3ODEyNSwieSI6NjA1fSx7IngiOjYyNC4wMzEyNSwieSI6NjA1fSx7IngiOjc3OS4wMzEyNSwieSI6NjA1fSx7IngiOjkzNC4wMzEyNSwieSI6NjA1fSx7IngiOjk4NC41NTQ2ODc1LCJ5Ijo2MDV9LHsieCI6MTA2OC4xNzk2ODc1LCJ5Ijo2MTAuNTU4ODM0OTg1MDY5NH1d" data-look="classic" marker-end="url(#my-svg_flowchart-v2-pointEnd)"/><path d="M370.922,1713.172L396.265,1509.643C421.609,1306.115,472.297,899.057,506.061,695.529C539.826,492,556.667,492,573.508,492C590.349,492,607.19,492,619.111,492C631.031,492,638.031,492,641.531,492L645.031,492" id="my-svg-L_LMS_UC5_0" class="edge-thickness-normal edge-pattern-solid edge-thickness-normal edge-pattern-solid flowchart-link" style=";" data-edge="true" data-et="edge" data-id="L_LMS_UC5_0" data-points="W3sieCI6MzcwLjkyMTUzNzE4NzcwMDgsInkiOjE3MTMuMTcxODc1fSx7IngiOjUyMi45ODQzNzUsInkiOjQ5Mn0seyJ4Ijo1NzMuNTA3ODEyNSwieSI6NDkyfSx7IngiOjYyNC4wMzEyNSwieSI6NDkyfSx7IngiOjY0OS4wMzEyNSwieSI6NDkyfV0=" data-look="classic" marker-end="url(#my-svg_flowchart-v2-pointEnd)"/><path d="M133.734,378L138.609,378C143.484,378,153.234,378,162.276,378C171.318,378,179.651,378,187.984,378C196.318,378,204.651,378,213.656,378C222.661,378,232.339,378,237.177,378L242.016,378" id="my-svg-L_S_UC9_0" class="edge-thickness-normal edge-pattern-solid edge-thickness-normal edge-pattern-solid flowchart-link" style=";" data-edge="true" data-et="edge" data-id="L_S_UC9_0" data-points="W3sieCI6MTMzLjczNDM3NSwieSI6Mzc4fSx7IngiOjE2Mi45ODQzNzUsInkiOjM3OH0seyJ4IjoxODcuOTg0Mzc1LCJ5IjozNzh9LHsieCI6MjEyLjk4NDM3NSwieSI6Mzc4fSx7IngiOjI0Ni4wMTU2MjUsInkiOjM3OH1d" data-look="classic" marker-end="url(#my-svg_flowchart-v2-pointEnd)"/><path d="M874.133,1442L884.116,1442C894.099,1442,914.065,1442,932.469,1442C950.872,1442,967.714,1442,983.898,1440.624C1000.083,1439.247,1015.611,1436.495,1023.375,1435.119L1031.14,1433.742" id="my-svg-L_UC1_UC3_0" class="edge-thickness-normal edge-pattern-dotted edge-thickness-normal edge-pattern-solid flowchart-link" style=";" data-edge="true" data-et="edge" data-id="L_UC1_UC3_0" data-points="W3sieCI6ODc0LjEzMjgxMjUsInkiOjE0NDJ9LHsieCI6OTM0LjAzMTI1LCJ5IjoxNDQyfSx7IngiOjk4NC41NTQ2ODc1LCJ5IjoxNDQyfSx7IngiOjEwMzUuMDc4MTI1LCJ5IjoxNDMzLjA0NDA5OTE5MDcyMTV9XQ==" data-look="classic" marker-end="url(#my-svg_flowchart-v2-pointEnd)"/><path d="M909.031,1302L913.198,1302C917.365,1302,925.698,1302,938.285,1302C950.872,1302,967.714,1302,991.441,1311.158C1015.169,1320.315,1045.784,1338.631,1061.091,1347.789L1076.398,1356.946" id="my-svg-L_UC2_UC3_0" class="edge-thickness-normal edge-pattern-dotted edge-thickness-normal edge-pattern-solid flowchart-link" style=";" data-edge="true" data-et="edge" data-id="L_UC2_UC3_0" data-points="W3sieCI6OTA5LjAzMTI1LCJ5IjoxMzAyfSx7IngiOjkzNC4wMzEyNSwieSI6MTMwMn0seyJ4Ijo5ODQuNTU0Njg3NSwieSI6MTMwMn0seyJ4IjoxMDc5LjgzMDk0NjE4MDU1NTcsInkiOjEzNTl9XQ==" data-look="classic" marker-end="url(#my-svg_flowchart-v2-pointEnd)"/><path d="M909.031,492L913.198,492C917.365,492,925.698,492,938.285,492C950.872,492,967.714,492,983.895,490.882C1000.076,489.765,1015.598,487.529,1023.358,486.411L1031.119,485.294" id="my-svg-L_UC5_UC8_0" class="edge-thickness-normal edge-pattern-dotted edge-thickness-normal edge-pattern-solid flowchart-link" style=";" data-edge="true" data-et="edge" data-id="L_UC5_UC8_0" data-points="W3sieCI6OTA5LjAzMTI1LCJ5Ijo0OTJ9LHsieCI6OTM0LjAzMTI1LCJ5Ijo0OTJ9LHsieCI6OTg0LjU1NDY4NzUsInkiOjQ5Mn0seyJ4IjoxMDM1LjA3ODEyNSwieSI6NDg0LjcyMzMzMDU5MjQ2MTE0fV0=" data-look="classic" marker-end="url(#my-svg_flowchart-v2-pointEnd)"/><path d="M903.219,970L908.354,970C913.49,970,923.76,970,937.316,923.667C950.872,877.333,967.714,784.667,989.96,732.589C1012.207,680.512,1039.86,669.023,1053.686,663.279L1067.512,657.535" id="my-svg-L_UC7b_UC4_0" class="edge-thickness-normal edge-pattern-dotted edge-thickness-normal edge-pattern-solid flowchart-link" style=";" data-edge="true" data-et="edge" data-id="L_UC7b_UC4_0" data-points="W3sieCI6OTAzLjIxODc1LCJ5Ijo5NzB9LHsieCI6OTM0LjAzMTI1LCJ5Ijo5NzB9LHsieCI6OTg0LjU1NDY4NzUsInkiOjY5Mn0seyJ4IjoxMDcxLjIwNTkzNzUsInkiOjY1Nn1d" data-look="classic" marker-end="url(#my-svg_flowchart-v2-pointEnd)"/><path d="M909.031,830L913.198,830C917.365,830,925.698,830,938.285,799.667C950.872,769.333,967.714,708.667,989.415,676.053C1011.116,643.439,1037.676,638.878,1050.957,636.597L1064.237,634.317" id="my-svg-L_UC7c_UC4_0" class="edge-thickness-normal edge-pattern-dotted edge-thickness-normal edge-pattern-solid flowchart-link" style=";" data-edge="true" data-et="edge" data-id="L_UC7c_UC4_0" data-points="W3sieCI6OTA5LjAzMTI1LCJ5Ijo4MzB9LHsieCI6OTM0LjAzMTI1LCJ5Ijo4MzB9LHsieCI6OTg0LjU1NDY4NzUsInkiOjY0OH0seyJ4IjoxMDY4LjE3OTY4NzUsInkiOjYzMy42Mzk2NzYyODg1NzA1fV0=" data-look="classic" marker-end="url(#my-svg_flowchart-v2-pointEnd)"/><path d="M497.984,186L502.151,186C506.318,186,514.651,186,527.238,186C539.826,186,556.667,186,573.508,186C590.349,186,607.19,186,619.111,185.91C631.032,185.819,638.032,185.639,641.532,185.548L645.033,185.458" id="my-svg-L_UC10_UC6_0" class="edge-thickness-normal edge-pattern-dotted edge-thickness-normal edge-pattern-solid flowchart-link" style=";" data-edge="true" data-et="edge" data-id="L_UC10_UC6_0" data-points="W3sieCI6NDk3Ljk4NDM3NSwieSI6MTg2fSx7IngiOjUyMi45ODQzNzUsInkiOjE4Nn0seyJ4Ijo1NzMuNTA3ODEyNSwieSI6MTg2fSx7IngiOjYyNC4wMzEyNSwieSI6MTg2fSx7IngiOjY0OS4wMzEyNSwieSI6MTg1LjM1NDgzODcwOTY3NzR9XQ==" data-look="classic" marker-end="url(#my-svg_flowchart-v2-pointEnd)"/><path d="M489.953,390.59L495.458,391.159C500.964,391.727,511.974,392.863,525.9,393.432C539.826,394,556.667,394,573.508,394C590.349,394,607.19,394,641.444,394C675.698,394,727.365,394,779.031,394C830.698,394,882.365,394,916.618,394C950.872,394,967.714,394,1000.54,424.149C1033.366,454.297,1082.178,514.594,1106.584,544.743L1130.99,574.891" id="my-svg-L_UC9_UC4_0" class="edge-thickness-normal edge-pattern-dotted edge-thickness-normal edge-pattern-solid flowchart-link" style=";" data-edge="true" data-et="edge" data-id="L_UC9_UC4_0" data-points="W3sieCI6NDg5Ljk1MzEyNSwieSI6MzkwLjU5MDMyMjU4MDY0NTE0fSx7IngiOjUyMi45ODQzNzUsInkiOjM5NH0seyJ4Ijo1NzMuNTA3ODEyNSwieSI6Mzk0fSx7IngiOjYyNC4wMzEyNSwieSI6Mzk0fSx7IngiOjc3OS4wMzEyNSwieSI6Mzk0fSx7IngiOjkzNC4wMzEyNSwieSI6Mzk0fSx7IngiOjk4NC41NTQ2ODc1LCJ5IjozOTR9LHsieCI6MTEzMy41MDY3NjE0OTEwMzEzLCJ5Ijo1Nzh9XQ==" data-look="classic" marker-end="url(#my-svg_flowchart-v2-pointEnd)"/><path d="M489.953,361.475L495.458,360.729C500.964,359.983,511.974,358.492,525.9,357.746C539.826,357,556.667,357,573.508,357C590.349,357,607.19,357,638.451,426.7C669.712,496.4,715.393,635.799,738.233,705.499L761.073,775.199" id="my-svg-L_UC9_UC7c_0" class="edge-thickness-normal edge-pattern-dotted edge-thickness-normal edge-pattern-solid flowchart-link" style=";" data-edge="true" data-et="edge" data-id="L_UC9_UC7c_0" data-points="W3sieCI6NDg5Ljk1MzEyNSwieSI6MzYxLjQ3NTIwMTYxMjkwMzJ9LHsieCI6NTIyLjk4NDM3NSwieSI6MzU3fSx7IngiOjU3My41MDc4MTI1LCJ5IjozNTd9LHsieCI6NjI0LjAzMTI1LCJ5IjozNTd9LHsieCI6NzYyLjMxODc3NjQyNzA2MTMsInkiOjc3OX1d" data-look="classic" marker-end="url(#my-svg_flowchart-v2-pointEnd)"/></g><g class="edgeLabels"><g class="edgeLabel"><g class="label" data-id="L_M_UC1_0" transform="translate(0, 0)"><foreignObject width="0" height="0"><div xmlns="http://www.w3.org/1999/xhtml" class="labelBkg" style="display: table-cell; white-space: nowrap; line-height: 1.5; max-width: 200px; text-align: center;"><span class="edgeLabel"></span></div></foreignObject></g></g><g class="edgeLabel"><g class="label" data-id="L_M_UC2_0" transform="translate(0, 0)"><foreignObject width="0" height="0"><div xmlns="http://www.w3.org/1999/xhtml" class="labelBkg" style="display: table-cell; white-space: nowrap; line-height: 1.5; max-width: 200px; text-align: center;"><span class="edgeLabel"></span></div></foreignObject></g></g><g class="edgeLabel"><g class="label" data-id="L_M_UC6_0" transform="translate(0, 0)"><foreignObject width="0" height="0"><div xmlns="http://www.w3.org/1999/xhtml" class="labelBkg" style="display: table-cell; white-space: nowrap; line-height: 1.5; max-width: 200px; text-align: center;"><span class="edgeLabel"></span></div></foreignObject></g></g><g class="edgeLabel"><g class="label" data-id="L_M_UC7a_0" transform="translate(0, 0)"><foreignObject width="0" height="0"><div xmlns="http://www.w3.org/1999/xhtml" class="labelBkg" style="display: table-cell; white-space: nowrap; line-height: 1.5; max-width: 200px; text-align: center;"><span class="edgeLabel"></span></div></foreignObject></g></g><g class="edgeLabel"><g class="label" data-id="L_M_UC7b_0" transform="translate(0, 0)"><foreignObject width="0" height="0"><div xmlns="http://www.w3.org/1999/xhtml" class="labelBkg" style="display: table-cell; white-space: nowrap; line-height: 1.5; max-width: 200px; text-align: center;"><span class="edgeLabel"></span></div></foreignObject></g></g><g class="edgeLabel"><g class="label" data-id="L_M_UC7c_0" transform="translate(0, 0)"><foreignObject width="0" height="0"><div xmlns="http://www.w3.org/1999/xhtml" class="labelBkg" style="display: table-cell; white-space: nowrap; line-height: 1.5; max-width: 200px; text-align: center;"><span class="edgeLabel"></span></div></foreignObject></g></g><g class="edgeLabel"><g class="label" data-id="L_A_UC10_0" transform="translate(0, 0)"><foreignObject width="0" height="0"><div xmlns="http://www.w3.org/1999/xhtml" class="labelBkg" style="display: table-cell; white-space: nowrap; line-height: 1.5; max-width: 200px; text-align: center;"><span class="edgeLabel"></span></div></foreignObject></g></g><g class="edgeLabel"><g class="label" data-id="L_A_UC6_0" transform="translate(0, 0)"><foreignObject width="0" height="0"><div xmlns="http://www.w3.org/1999/xhtml" class="labelBkg" style="display: table-cell; white-space: nowrap; line-height: 1.5; max-width: 200px; text-align: center;"><span class="edgeLabel"></span></div></foreignObject></g></g><g class="edgeLabel"><g class="label" data-id="L_LMS_UC4_0" transform="translate(0, 0)"><foreignObject width="0" height="0"><div xmlns="http://www.w3.org/1999/xhtml" class="labelBkg" style="display: table-cell; white-space: nowrap; line-height: 1.5; max-width: 200px; text-align: center;"><span class="edgeLabel"></span></div></foreignObject></g></g><g class="edgeLabel"><g class="label" data-id="L_LMS_UC5_0" transform="translate(0, 0)"><foreignObject width="0" height="0"><div xmlns="http://www.w3.org/1999/xhtml" class="labelBkg" style="display: table-cell; white-space: nowrap; line-height: 1.5; max-width: 200px; text-align: center;"><span class="edgeLabel"></span></div></foreignObject></g></g><g class="edgeLabel"><g class="label" data-id="L_S_UC9_0" transform="translate(0, 0)"><foreignObject width="0" height="0"><div xmlns="http://www.w3.org/1999/xhtml" class="labelBkg" style="display: table-cell; white-space: nowrap; line-height: 1.5; max-width: 200px; text-align: center;"><span class="edgeLabel"></span></div></foreignObject></g></g><g class="edgeLabel" transform="translate(984.5546875, 1442)"><g class="label" data-id="L_UC1_UC3_0" transform="translate(-25.5234375, -12)"><foreignObject width="51.046875" height="24"><div xmlns="http://www.w3.org/1999/xhtml" class="labelBkg" style="display: table-cell; white-space: nowrap; line-height: 1.5; max-width: 200px; text-align: center;"><span class="edgeLabel"><p>include</p></span></div></foreignObject></g></g><g class="edgeLabel" transform="translate(984.5546875, 1302)"><g class="label" data-id="L_UC2_UC3_0" transform="translate(-25.5234375, -12)"><foreignObject width="51.046875" height="24"><div xmlns="http://www.w3.org/1999/xhtml" class="labelBkg" style="display: table-cell; white-space: nowrap; line-height: 1.5; max-width: 200px; text-align: center;"><span class="edgeLabel"><p>include</p></span></div></foreignObject></g></g><g class="edgeLabel" transform="translate(984.5546875, 492)"><g class="label" data-id="L_UC5_UC8_0" transform="translate(-25.5234375, -12)"><foreignObject width="51.046875" height="24"><div xmlns="http://www.w3.org/1999/xhtml" class="labelBkg" style="display: table-cell; white-space: nowrap; line-height: 1.5; max-width: 200px; text-align: center;"><span class="edgeLabel"><p>include</p></span></div></foreignObject></g></g><g class="edgeLabel" transform="translate(964.92723, 799.99809)"><g class="label" data-id="L_UC7b_UC4_0" transform="translate(-25.5234375, -12)"><foreignObject width="51.046875" height="24"><div xmlns="http://www.w3.org/1999/xhtml" class="labelBkg" style="display: table-cell; white-space: nowrap; line-height: 1.5; max-width: 200px; text-align: center;"><span class="edgeLabel"><p>include</p></span></div></foreignObject></g></g><g class="edgeLabel" transform="translate(967.29736, 710.16588)"><g class="label" data-id="L_UC7c_UC4_0" transform="translate(-25.5234375, -12)"><foreignObject width="51.046875" height="24"><div xmlns="http://www.w3.org/1999/xhtml" class="labelBkg" style="display: table-cell; white-space: nowrap; line-height: 1.5; max-width: 200px; text-align: center;"><span class="edgeLabel"><p>include</p></span></div></foreignObject></g></g><g class="edgeLabel" transform="translate(573.5078125, 186)"><g class="label" data-id="L_UC10_UC6_0" transform="translate(-25.5234375, -12)"><foreignObject width="51.046875" height="24"><div xmlns="http://www.w3.org/1999/xhtml" class="labelBkg" style="display: table-cell; white-space: nowrap; line-height: 1.5; max-width: 200px; text-align: center;"><span class="edgeLabel"><p>include</p></span></div></foreignObject></g></g><g class="edgeLabel" transform="translate(779.03125, 394)"><g class="label" data-id="L_UC9_UC4_0" transform="translate(-23.9921875, -12)"><foreignObject width="47.984375" height="24"><div xmlns="http://www.w3.org/1999/xhtml" class="labelBkg" style="display: table-cell; white-space: nowrap; line-height: 1.5; max-width: 200px; text-align: center;"><span class="edgeLabel"><p>extend</p></span></div></foreignObject></g></g><g class="edgeLabel" transform="translate(573.5078125, 357)"><g class="label" data-id="L_UC9_UC7c_0" transform="translate(-23.9921875, -12)"><foreignObject width="47.984375" height="24"><div xmlns="http://www.w3.org/1999/xhtml" class="labelBkg" style="display: table-cell; white-space: nowrap; line-height: 1.5; max-width: 200px; text-align: center;"><span class="edgeLabel"><p>extend</p></span></div></foreignObject></g></g></g><g class="nodes"><g class="node default actor" id="my-svg-flowchart-M-0" data-look="classic" transform="translate(367.984375, 1619.8359375)"><circle class="basic label-container" style="fill:#fff8e7 !important;stroke:#a07a14 !important" r="42.8359375" cx="0" cy="0"/><g class="label" style="color:#5a4400 !important" transform="translate(-35.3359375, -12)"><rect/><foreignObject width="70.671875" height="24"><div style="color: rgb(90, 68, 0) !important; display: table-cell; white-space: nowrap; line-height: 1.5; max-width: 200px; text-align: center;" xmlns="http://www.w3.org/1999/xhtml"><span style="color:#5a4400 !important" class="nodeLabel"><p>Методист</p></span></div></foreignObject></g></g><g class="node default actor" id="my-svg-flowchart-A-1" data-look="classic" transform="translate(72.9921875, 136)"><circle class="basic label-container" style="fill:#fff8e7 !important;stroke:#a07a14 !important" r="64.9921875" cx="0" cy="0"/><g class="label" style="color:#5a4400 !important" transform="translate(-57.4921875, -12)"><rect/><foreignObject width="114.984375" height="24"><div style="color: rgb(90, 68, 0) !important; display: table-cell; white-space: nowrap; line-height: 1.5; max-width: 200px; text-align: center;" xmlns="http://www.w3.org/1999/xhtml"><span style="color:#5a4400 !important" class="nodeLabel"><p>Администратор</p></span></div></foreignObject></g></g><g class="node default ext" id="my-svg-flowchart-LMS-2" data-look="classic" transform="translate(367.984375, 1732.171875)"><g class="basic label-container outer-path"><path d="M-44.046875 -19.5 C-26.374444505526135 -19.5, -8.70201401105227 -19.5, 44.046875 -19.5 C44.046875 -19.5, 44.046875 -19.5, 44.046875 -19.5 C44.513304001543574 -19.485042529769473, 44.979733003087155 -19.470085059538945, 45.2962442896239 -19.45993515863156 C45.65976234166397 -19.424867009345675, 46.02328039370404 -19.38979886005979, 46.540479652847864 -19.3399052695533 C46.90143563357325 -19.281548705845058, 47.262391614298636 -19.223192142136813, 47.77446825967676 -19.140403561325776 C48.15477350277961 -19.053601371311192, 48.53507874588246 -18.966799181296604, 48.99313938623539 -18.862249829261074 C49.249393816412656 -18.786194859491417, 49.50564824658992 -18.710139889721756, 50.191485251460605 -18.50658706670804 C50.55123743174491 -18.374194938850714, 50.91098961202922 -18.24180281099339, 51.3645815951478 -18.074876768247425 C51.70956376708067 -17.922163394265276, 52.05454593901353 -17.769450020283127, 52.50760791279238 -17.568892924097174 C52.88383025097321 -17.372617971250143, 53.260052589154036 -17.176343018403117, 53.61586726407678 -16.990714730406097 C53.93964750134546 -16.79443724782995, 54.26342773861414 -16.5981597652538, 54.6848055736057 -16.342718045390892 C54.9900445535021 -16.129796546597635, 55.2952835333985 -15.91687504780438, 55.71003034457871 -15.627565626425154 C56.008344759537614 -15.389667818975408, 56.30665917449651 -15.151770011525661, 56.687328708501866 -14.848196188198123 C56.947574830447515 -14.61184754598215, 57.207820952393156 -14.375498903766175, 57.61268473676799 -14.007812326905688 C57.81993928785238 -13.79380498699596, 58.02719383893676 -13.579797647086233, 58.48229594296865 -13.10986736009568 C58.74916211908859 -12.796391164509602, 59.01602829520853 -12.482914968923524, 59.29258890812658 -12.158051136245305 C59.50768697351643 -11.869839324459793, 59.722785038906274 -11.58162751267428, 60.040233964640635 -11.156274872382312 C60.25095330164733 -10.832553384675254, 60.461672638654015 -10.508831896968195, 60.72215887860425 -10.108655082055241 C60.89497552120261 -9.801801633539197, 61.06779216380097 -9.494948185023151, 61.335561474273504 -9.019496659696287 C61.51298982798233 -8.651062886861308, 61.69041818169115 -8.282629114026326, 61.87792114880834 -7.893275190886684 C62.01169715654502 -7.562845865393938, 62.14547316428169 -7.232416539901192, 62.347009229970325 -6.734618561215508 C62.44522200558397 -6.438817329147952, 62.54343478119762 -6.143016097080396, 62.74089813421488 -5.548287939305138 C62.82448854208395 -5.229521485788454, 62.90807894995301 -4.91075503227177, 63.05796928754556 -4.339158212148133 C63.13473489898892 -3.9449830218042283, 63.211500510432266 -3.550807831460323, 63.296919776581774 -3.1121979531509023 C63.33149179255509 -2.8440642242785867, 63.36606380852841 -2.575930495406271, 63.45676770250937 -1.872449005199798 C63.48020970093079 -1.50732095774556, 63.50365169935222 -1.142192910291322, 63.53685621591342 -0.6250057626472757 C63.53685621591342 -0.13130569011477222, 63.53685621591342 0.36239438241773125, 63.53685621591342 0.625005762647271 C63.50559904941687 1.111861361161592, 63.474341882920335 1.598716959675913, 63.45676770250937 1.8724490051997846 C63.42036351234644 2.1547927152829813, 63.383959322183514 2.4371364253661785, 63.296919776581774 3.1121979531508885 C63.21317233099828 3.54222338619322, 63.1294248854148 3.972248819235552, 63.05796928754556 4.339158212148129 C62.962907119441056 4.701671459334887, 62.86784495133655 5.064184706521646, 62.74089813421489 5.548287939305125 C62.619845849933704 5.9128781324977755, 62.49879356565252 6.2774683256904265, 62.347009229970325 6.734618561215495 C62.19526537469207 7.109428817520642, 62.043521519413815 7.484239073825788, 61.87792114880834 7.893275190886679 C61.71994922799694 8.221307264509186, 61.561977307185536 8.549339338131693, 61.335561474273504 9.019496659696284 C61.13114505797914 9.382458706233644, 60.926728641684775 9.745420752771002, 60.72215887860425 10.108655082055236 C60.56111063294334 10.356068434899575, 60.40006238728243 10.603481787743915, 60.04023396464064 11.156274872382301 C59.86597116433201 11.389771149128165, 59.691708364023384 11.62326742587403, 59.29258890812658 12.158051136245302 C59.10746079152848 12.375513156089683, 58.92233267493038 12.592975175934066, 58.48229594296866 13.10986736009567 C58.177559396628276 13.424532863527872, 57.87282285028788 13.739198366960075, 57.61268473676799 14.007812326905684 C57.403462357834535 14.19782255573225, 57.19423997890108 14.387832784558816, 56.68732870850189 14.848196188198111 C56.381670220055334 15.091950698820257, 56.07601173160878 15.335705209442404, 55.71003034457871 15.627565626425152 C55.316502094874096 15.90207389785573, 54.92297384516948 16.17658216928631, 54.68480557360571 16.34271804539089 C54.2585603380725 16.60111041206616, 53.8323151025393 16.859502778741433, 53.61586726407678 16.990714730406093 C53.34776308681473 17.130584507954783, 53.079658909552684 17.270454285503476, 52.50760791279239 17.56889292409717 C52.09150740960921 17.75308827367349, 51.67540690642603 17.93728362324981, 51.364581595147804 18.07487676824742 C51.09253763427582 18.17499146059512, 50.82049367340384 18.275106152942815, 50.19148525146062 18.506587066708033 C49.80742032040536 18.62057552224727, 49.42335538935011 18.73456397778651, 48.99313938623541 18.86224982926107 C48.53529289041568 18.96675030420432, 48.07744639459596 19.07125077914757, 47.774468259676766 19.140403561325773 C47.45021102890086 19.19282695574524, 47.12595379812495 19.24525035016471, 46.54047965284788 19.3399052695533 C46.19457604786197 19.37327417431634, 45.848672442876065 19.40664307907938, 45.2962442896239 19.45993515863156 C44.86928798920395 19.473626816166004, 44.442331688783995 19.487318473700448, 44.04687500000001 19.5 C44.04687500000001 19.5, 44.046875 19.5, 44.046875 19.5 C9.393886251082314 19.5, -25.25910249783537 19.5, -44.04687499999999 19.5 C-44.48235360275808 19.48603504881723, -44.91783220551618 19.472070097634454, -45.29624428962389 19.45993515863156 C-45.72769982686876 19.418313161854748, -46.15915536411363 19.376691165077936, -46.54047965284787 19.3399052695533 C-46.85033770349736 19.289809822909362, -47.16019575414685 19.23971437626542, -47.77446825967676 19.140403561325773 C-48.031327202124956 19.081777183873218, -48.288186144573146 19.023150806420663, -48.993139386235384 18.862249829261074 C-49.379883940562856 18.747466075600276, -49.76662849489033 18.632682321939473, -50.19148525146059 18.506587066708043 C-50.60817571880473 18.353241122880945, -51.02486618614888 18.199895179053843, -51.3645815951478 18.074876768247425 C-51.71239780157635 17.92090885126268, -52.060214008004905 17.76694093427794, -52.50760791279238 17.568892924097174 C-52.87901608607528 17.375129517993773, -53.250424259358184 17.181366111890377, -53.61586726407678 16.990714730406097 C-53.91626271805392 16.80861324088552, -54.21665817203105 16.626511751364944, -54.684805573605686 16.3427180453909 C-54.91859904558765 16.179633840092567, -55.15239251756961 16.016549634794238, -55.71003034457871 15.627565626425156 C-56.020032802516866 15.380346915731337, -56.33003526045503 15.133128205037519, -56.687328708501866 14.848196188198125 C-57.02679191234152 14.539904688175142, -57.36625511618118 14.23161318815216, -57.612684736767974 14.007812326905697 C-57.8195916920684 13.794163908181055, -58.026498647368825 13.580515489456413, -58.482295942968655 13.109867360095677 C-58.7093239519243 12.843187342516709, -58.93635196087994 12.57650732493774, -59.292588908126575 12.158051136245307 C-59.503070976421895 11.876024340040475, -59.713553044717216 11.593997543835641, -60.040233964640635 11.156274872382316 C-60.22566581539529 10.871401754199228, -60.411097666149935 10.586528636016142, -60.72215887860425 10.108655082055249 C-60.942893234862005 9.71671888074229, -61.163627591119756 9.324782679429333, -61.335561474273504 9.019496659696289 C-61.462933875518154 8.755005143178973, -61.5903062767628 8.490513626661658, -61.87792114880834 7.893275190886686 C-62.0049824623136 7.579431289965325, -62.13204377581885 7.265587389043965, -62.347009229970325 6.73461856121551 C-62.427238503674644 6.492980771616926, -62.50746777737896 6.251342982018343, -62.74089813421488 5.5482879393051325 C-62.82320430734365 5.234418829444051, -62.90551048047242 4.92054971958297, -63.05796928754556 4.339158212148136 C-63.1102869341743 4.070518154048098, -63.162604580803034 3.8018780959480596, -63.296919776581774 3.112197953150904 C-63.348126588345714 2.715048033038507, -63.399333400109654 2.31789811292611, -63.45676770250937 1.872449005199809 C-63.4748109262294 1.5914112315321693, -63.492854149949444 1.3103734578645296, -63.53685621591342 0.6250057626472781 C-63.53685621591342 0.21420254172789716, -63.53685621591342 -0.19660067919148383, -63.53685621591342 -0.6250057626472687 C-63.506639853310446 -1.0956500003974146, -63.476423490707475 -1.5662942381475606, -63.45676770250937 -1.8724490051997822 C-63.402651711268675 -2.2921619468513836, -63.34853572002799 -2.711874888502985, -63.296919776581774 -3.112197953150895 C-63.21738556356764 -3.520589327416599, -63.13785135055351 -3.9289807016823026, -63.05796928754556 -4.339158212148126 C-62.987091178189054 -4.609447161891407, -62.91621306883255 -4.879736111634689, -62.74089813421489 -5.548287939305123 C-62.593644743166244 -5.991791691501925, -62.4463913521176 -6.4352954436987275, -62.34700922997033 -6.734618561215485 C-62.23710507176343 -7.006083956838886, -62.12720091355652 -7.277549352462286, -61.87792114880834 -7.893275190886676 C-61.721985738470664 -8.217078406936148, -61.56605032813299 -8.540881622985621, -61.335561474273504 -9.019496659696282 C-61.12281427695489 -9.397250851525248, -60.91006707963628 -9.775005043354215, -60.72215887860425 -10.108655082055243 C-60.573570943245215 -10.336926052214094, -60.424983007886176 -10.565197022372947, -60.04023396464064 -11.156274872382308 C-59.833954866933176 -11.432670070897915, -59.62767576922571 -11.709065269413522, -59.29258890812659 -12.158051136245302 C-59.074580931372054 -12.414135710746471, -58.85657295461752 -12.670220285247641, -58.48229594296866 -13.10986736009567 C-58.25458344022748 -13.344999214720106, -58.026870937486294 -13.580131069344544, -57.612684736767996 -14.007812326905677 C-57.26643261047366 -14.32226934667696, -56.92018048417932 -14.636726366448242, -56.68732870850189 -14.848196188198107 C-56.32725854875334 -15.135342558728206, -55.967188389004804 -15.422488929258307, -55.71003034457872 -15.627565626425149 C-55.398177686529145 -15.845100540796548, -55.086325028479564 -16.062635455167946, -54.684805573605715 -16.342718045390885 C-54.315050098681 -16.56686598721461, -53.94529462375628 -16.791013929038332, -53.61586726407679 -16.99071473040609 C-53.37254435697533 -17.11765613518516, -53.12922144987387 -17.244597539964236, -52.50760791279239 -17.56889292409717 C-52.06237557073205 -17.765984074579112, -51.61714322867172 -17.96307522506105, -51.364581595147804 -18.07487676824742 C-50.90423985954352 -18.24428678230215, -50.44389812393925 -18.41369679635688, -50.19148525146062 -18.506587066708033 C-49.82104118601031 -18.616532920833105, -49.450597120560005 -18.726478774958174, -48.99313938623541 -18.862249829261067 C-48.72156012465337 -18.924236023496864, -48.44998086307133 -18.98622221773266, -47.774468259676766 -19.140403561325773 C-47.500662053149746 -19.184670425398217, -47.22685584662272 -19.22893728947066, -46.54047965284788 -19.3399052695533 C-46.2651431625604 -19.366466649630755, -45.98980667227292 -19.393028029708212, -45.2962442896239 -19.45993515863156 C-44.95753134105848 -19.47079702362729, -44.618818392493054 -19.481658888623027, -44.04687500000001 -19.5 C-44.04687500000001 -19.5, -44.04687500000001 -19.5, -44.046875 -19.5" stroke="none" stroke-width="0" fill="#eef2ff" style="fill:#eef2ff !important;stroke:#5a6acf !important"/><path d="M-44.046875 -19.5 C-24.177454635717236 -19.5, -4.308034271434472 -19.5, 44.046875 -19.5 M-44.046875 -19.5 C-16.00952026988214 -19.5, 12.027834460235717 -19.5, 44.046875 -19.5 M44.046875 -19.5 C44.046875 -19.5, 44.046875 -19.5, 44.046875 -19.5 M44.046875 -19.5 C44.046875 -19.5, 44.046875 -19.5, 44.046875 -19.5 M44.046875 -19.5 C44.35637445786764 -19.490074954790334, 44.66587391573527 -19.480149909580668, 45.2962442896239 -19.45993515863156 M44.046875 -19.5 C44.456888031363334 -19.48685168012613, 44.86690106272667 -19.47370336025226, 45.2962442896239 -19.45993515863156 M45.2962442896239 -19.45993515863156 C45.561913217166385 -19.434306396705168, 45.82758214470887 -19.408677634778776, 46.540479652847864 -19.3399052695533 M45.2962442896239 -19.45993515863156 C45.65966827281704 -19.4248760840542, 46.023092256010194 -19.389817009476847, 46.540479652847864 -19.3399052695533 M46.540479652847864 -19.3399052695533 C47.002512228564015 -19.26520742582765, 47.46454480428017 -19.190509582102003, 47.77446825967676 -19.140403561325776 M46.540479652847864 -19.3399052695533 C47.00728017816908 -19.264436580711507, 47.4740807034903 -19.188967891869712, 47.77446825967676 -19.140403561325776 M47.77446825967676 -19.140403561325776 C48.12552717343254 -19.060276655134526, 48.476586087188316 -18.980149748943273, 48.99313938623539 -18.862249829261074 M47.77446825967676 -19.140403561325776 C48.042696490651615 -19.07918221795855, 48.31092472162647 -19.017960874591324, 48.99313938623539 -18.862249829261074 M48.99313938623539 -18.862249829261074 C49.3589873787998 -18.75366806544326, 49.72483537136421 -18.645086301625444, 50.191485251460605 -18.50658706670804 M48.99313938623539 -18.862249829261074 C49.412853134730895 -18.737680991830032, 49.832566883226406 -18.61311215439899, 50.191485251460605 -18.50658706670804 M50.191485251460605 -18.50658706670804 C50.48418477806592 -18.39887093523252, 50.77688430467123 -18.291154803757003, 51.3645815951478 -18.074876768247425 M50.191485251460605 -18.50658706670804 C50.42955451984051 -18.418975375256043, 50.66762378822041 -18.331363683804046, 51.3645815951478 -18.074876768247425 M51.3645815951478 -18.074876768247425 C51.746372389732166 -17.905869308906453, 52.12816318431654 -17.73686184956548, 52.50760791279238 -17.568892924097174 M51.3645815951478 -18.074876768247425 C51.82121121015432 -17.872740383120295, 52.27784082516084 -17.67060399799317, 52.50760791279238 -17.568892924097174 M52.50760791279238 -17.568892924097174 C52.79698072302159 -17.417927314352728, 53.0863535332508 -17.26696170460828, 53.61586726407678 -16.990714730406097 M52.50760791279238 -17.568892924097174 C52.87688855422713 -17.376239449996206, 53.246169195661885 -17.183585975895237, 53.61586726407678 -16.990714730406097 M53.61586726407678 -16.990714730406097 C53.97566347995509 -16.77260414994341, 54.335459695833386 -16.554493569480723, 54.6848055736057 -16.342718045390892 M53.61586726407678 -16.990714730406097 C53.99680692096905 -16.759786871748094, 54.377746577861316 -16.52885901309009, 54.6848055736057 -16.342718045390892 M54.6848055736057 -16.342718045390892 C54.915802781272475 -16.181584393030505, 55.14679998893925 -16.020450740670114, 55.71003034457871 -15.627565626425154 M54.6848055736057 -16.342718045390892 C55.01184900075165 -16.114586708095658, 55.338892427897605 -15.886455370800425, 55.71003034457871 -15.627565626425154 M55.71003034457871 -15.627565626425154 C55.94980522031692 -15.43635154370135, 56.18958009605512 -15.245137460977547, 56.687328708501866 -14.848196188198123 M55.71003034457871 -15.627565626425154 C55.9585852750576 -15.429349683692724, 56.20714020553648 -15.231133740960296, 56.687328708501866 -14.848196188198123 M56.687328708501866 -14.848196188198123 C56.94021602096834 -14.618530622047698, 57.19310333343483 -14.388865055897273, 57.61268473676799 -14.007812326905688 M56.687328708501866 -14.848196188198123 C56.89760231030308 -14.657231266576892, 57.1078759121043 -14.466266344955661, 57.61268473676799 -14.007812326905688 M57.61268473676799 -14.007812326905688 C57.95658878181116 -13.652703165351411, 58.30049282685434 -13.297594003797133, 58.48229594296865 -13.10986736009568 M57.61268473676799 -14.007812326905688 C57.906964722092155 -13.70394408122236, 58.201244707416315 -13.400075835539035, 58.48229594296865 -13.10986736009568 M58.48229594296865 -13.10986736009568 C58.65508278072208 -12.906902108620907, 58.82786961847552 -12.70393685714613, 59.29258890812658 -12.158051136245305 M58.48229594296865 -13.10986736009568 C58.64468819319238 -12.919112182602078, 58.80708044341612 -12.728357005108474, 59.29258890812658 -12.158051136245305 M59.29258890812658 -12.158051136245305 C59.4490327613729 -11.94843062522347, 59.605476614619214 -11.738810114201636, 60.040233964640635 -11.156274872382312 M59.29258890812658 -12.158051136245305 C59.448507315552725 -11.9491346747534, 59.604425722978874 -11.740218213261496, 60.040233964640635 -11.156274872382312 M60.040233964640635 -11.156274872382312 C60.29355855676296 -10.767100271704729, 60.54688314888529 -10.377925671027146, 60.72215887860425 -10.108655082055241 M60.040233964640635 -11.156274872382312 C60.225772488742 -10.871237875292865, 60.41131101284337 -10.586200878203416, 60.72215887860425 -10.108655082055241 M60.72215887860425 -10.108655082055241 C60.95202878866633 -9.700497779887561, 61.18189869872842 -9.29234047771988, 61.335561474273504 -9.019496659696287 M60.72215887860425 -10.108655082055241 C60.96054457777687 -9.685377134004648, 61.1989302769495 -9.262099185954055, 61.335561474273504 -9.019496659696287 M61.335561474273504 -9.019496659696287 C61.52184030855481 -8.632684674582611, 61.708119142836104 -8.245872689468936, 61.87792114880834 -7.893275190886684 M61.335561474273504 -9.019496659696287 C61.45256400826982 -8.77653839439976, 61.56956654226613 -8.533580129103232, 61.87792114880834 -7.893275190886684 M61.87792114880834 -7.893275190886684 C62.05598364403798 -7.453457385065338, 62.23404613926761 -7.013639579243993, 62.347009229970325 -6.734618561215508 M61.87792114880834 -7.893275190886684 C61.995499866948215 -7.602853483851318, 62.1130785850881 -7.31243177681595, 62.347009229970325 -6.734618561215508 M62.347009229970325 -6.734618561215508 C62.477870514588815 -6.340485221858854, 62.6087317992073 -5.9463518825022, 62.74089813421488 -5.548287939305138 M62.347009229970325 -6.734618561215508 C62.47733433772313 -6.342100101150107, 62.60765944547593 -5.949581641084706, 62.74089813421488 -5.548287939305138 M62.74089813421488 -5.548287939305138 C62.82406401272468 -5.231140400227499, 62.90722989123449 -4.91399286114986, 63.05796928754556 -4.339158212148133 M62.74089813421488 -5.548287939305138 C62.81055181109662 -5.282668281260536, 62.880205487978365 -5.017048623215935, 63.05796928754556 -4.339158212148133 M63.05796928754556 -4.339158212148133 C63.10832209640312 -4.08060718073449, 63.158674905260675 -3.8220561493208476, 63.296919776581774 -3.1121979531509023 M63.05796928754556 -4.339158212148133 C63.10920958273911 -4.076050125969452, 63.16044987793267 -3.812942039790771, 63.296919776581774 -3.1121979531509023 M63.296919776581774 -3.1121979531509023 C63.331765457545956 -2.8419417326507146, 63.36661113851014 -2.571685512150527, 63.45676770250937 -1.872449005199798 M63.296919776581774 -3.1121979531509023 C63.33485218332407 -2.8180016970586266, 63.37278459006637 -2.523805440966351, 63.45676770250937 -1.872449005199798 M63.45676770250937 -1.872449005199798 C63.486655027981364 -1.4069297863585812, 63.51654235345335 -0.9414105675173646, 63.53685621591342 -0.6250057626472757 M63.45676770250937 -1.872449005199798 C63.47685330330653 -1.559599559978937, 63.49693890410368 -1.246750114758076, 63.53685621591342 -0.6250057626472757 M63.53685621591342 -0.6250057626472757 C63.53685621591342 -0.3512456625566422, 63.53685621591342 -0.07748556246600868, 63.53685621591342 0.625005762647271 M63.53685621591342 -0.6250057626472757 C63.53685621591342 -0.34548443961228376, 63.53685621591342 -0.06596311657729181, 63.53685621591342 0.625005762647271 M63.53685621591342 0.625005762647271 C63.51408990730528 0.9796093958525796, 63.491323598697136 1.334213029057888, 63.45676770250937 1.8724490051997846 M63.53685621591342 0.625005762647271 C63.50765020287509 1.07991299038858, 63.478444189836765 1.5348202181298891, 63.45676770250937 1.8724490051997846 M63.45676770250937 1.8724490051997846 C63.41986045138042 2.158694356794813, 63.38295320025147 2.4449397083898416, 63.296919776581774 3.1121979531508885 M63.45676770250937 1.8724490051997846 C63.41986363675001 2.15866965169733, 63.38295957099064 2.444890298194876, 63.296919776581774 3.1121979531508885 M63.296919776581774 3.1121979531508885 C63.2195050079064 3.5097064286817847, 63.14209023923103 3.9072149042126805, 63.05796928754556 4.339158212148129 M63.296919776581774 3.1121979531508885 C63.24053690106895 3.401712102384275, 63.18415402555613 3.6912262516176613, 63.05796928754556 4.339158212148129 M63.05796928754556 4.339158212148129 C62.94208045372778 4.781092562033606, 62.82619161991001 5.223026911919085, 62.74089813421489 5.548287939305125 M63.05796928754556 4.339158212148129 C62.954068445781054 4.735377152705879, 62.85016760401654 5.131596093263629, 62.74089813421489 5.548287939305125 M62.74089813421489 5.548287939305125 C62.63652249463545 5.862650735718624, 62.532146855056006 6.177013532132123, 62.347009229970325 6.734618561215495 M62.74089813421489 5.548287939305125 C62.60500082882166 5.957588970854351, 62.46910352342843 6.366890002403577, 62.347009229970325 6.734618561215495 M62.347009229970325 6.734618561215495 C62.23116311404859 7.02076070727446, 62.11531699812686 7.306902853333427, 61.87792114880834 7.893275190886679 M62.347009229970325 6.734618561215495 C62.24084819849436 6.996838361445044, 62.13468716701839 7.259058161674593, 61.87792114880834 7.893275190886679 M61.87792114880834 7.893275190886679 C61.75551211498876 8.147460168746782, 61.63310308116918 8.401645146606885, 61.335561474273504 9.019496659696284 M61.87792114880834 7.893275190886679 C61.66996607446125 8.325098352294205, 61.46201100011416 8.75692151370173, 61.335561474273504 9.019496659696284 M61.335561474273504 9.019496659696284 C61.10325217829679 9.431985338569993, 60.87094288232008 9.844474017443702, 60.72215887860425 10.108655082055236 M61.335561474273504 9.019496659696284 C61.14060909827228 9.36565434435517, 60.94565672227106 9.711812029014057, 60.72215887860425 10.108655082055236 M60.72215887860425 10.108655082055236 C60.511643021967934 10.432063969271264, 60.30112716533162 10.755472856487293, 60.04023396464064 11.156274872382301 M60.72215887860425 10.108655082055236 C60.455604350578085 10.518154417016332, 60.18904982255192 10.927653751977426, 60.04023396464064 11.156274872382301 M60.04023396464064 11.156274872382301 C59.88534943931775 11.36380602604444, 59.730464913994865 11.57133717970658, 59.29258890812658 12.158051136245302 M60.04023396464064 11.156274872382301 C59.85586978449882 11.40330607785001, 59.671505604356994 11.650337283317716, 59.29258890812658 12.158051136245302 M59.29258890812658 12.158051136245302 C59.09877279233001 12.385718574309367, 58.90495667653344 12.613386012373432, 58.48229594296866 13.10986736009567 M59.29258890812658 12.158051136245302 C59.045895194698524 12.447831609307853, 58.799201481270465 12.737612082370406, 58.48229594296866 13.10986736009567 M58.48229594296866 13.10986736009567 C58.26517873542464 13.334058702539126, 58.04806152788061 13.558250044982582, 57.61268473676799 14.007812326905684 M58.48229594296866 13.10986736009567 C58.198891746045206 13.402505461336427, 57.91548754912176 13.695143562577183, 57.61268473676799 14.007812326905684 M57.61268473676799 14.007812326905684 C57.332142251886594 14.262593588927572, 57.0515997670052 14.517374850949459, 56.68732870850189 14.848196188198111 M57.61268473676799 14.007812326905684 C57.28877773324133 14.30197609739891, 56.964870729714676 14.596139867892136, 56.68732870850189 14.848196188198111 M56.68732870850189 14.848196188198111 C56.4144528546814 15.065807420088513, 56.14157700086091 15.283418651978916, 55.71003034457871 15.627565626425152 M56.68732870850189 14.848196188198111 C56.35138878983671 15.116099333596908, 56.015448871171536 15.384002478995704, 55.71003034457871 15.627565626425152 M55.71003034457871 15.627565626425152 C55.39966610069264 15.844062287508498, 55.08930185680658 16.060558948591844, 54.68480557360571 16.34271804539089 M55.71003034457871 15.627565626425152 C55.32880928237535 15.893488936624415, 54.94758822017199 16.159412246823678, 54.68480557360571 16.34271804539089 M54.68480557360571 16.34271804539089 C54.43009856116883 16.49712293315467, 54.17539154873196 16.651527820918457, 53.61586726407678 16.990714730406093 M54.68480557360571 16.34271804539089 C54.372572311400354 16.53199568382609, 54.060339049195 16.721273322261293, 53.61586726407678 16.990714730406093 M53.61586726407678 16.990714730406093 C53.386048491298645 17.1106110369585, 53.15622971852051 17.230507343510904, 52.50760791279239 17.56889292409717 M53.61586726407678 16.990714730406093 C53.29164698095293 17.159860244438804, 52.96742669782909 17.32900575847151, 52.50760791279239 17.56889292409717 M52.50760791279239 17.56889292409717 C52.2156739507565 17.69812342917716, 51.92373998872062 17.82735393425715, 51.364581595147804 18.07487676824742 M52.50760791279239 17.56889292409717 C52.2027153405949 17.70385982149219, 51.89782276839741 17.83882671888721, 51.364581595147804 18.07487676824742 M51.364581595147804 18.07487676824742 C50.963606679805494 18.222439243664876, 50.562631764463184 18.37000171908233, 50.19148525146062 18.506587066708033 M51.364581595147804 18.07487676824742 C51.04975122622604 18.19073725427066, 50.734920857304274 18.306597740293896, 50.19148525146062 18.506587066708033 M50.19148525146062 18.506587066708033 C49.90534088825657 18.591513211704584, 49.619196525052516 18.676439356701135, 48.99313938623541 18.86224982926107 M50.19148525146062 18.506587066708033 C49.82304435276304 18.61593839145573, 49.45460345406546 18.725289716203434, 48.99313938623541 18.86224982926107 M48.99313938623541 18.86224982926107 C48.583865328160634 18.955663962253812, 48.174591270085855 19.049078095246557, 47.774468259676766 19.140403561325773 M48.99313938623541 18.86224982926107 C48.58674223775004 18.95500732641362, 48.180345089264655 19.047764823566176, 47.774468259676766 19.140403561325773 M47.774468259676766 19.140403561325773 C47.36238305063266 19.207026302155498, 46.95029784158855 19.273649042985227, 46.54047965284788 19.3399052695533 M47.774468259676766 19.140403561325773 C47.30794595810505 19.215827269109404, 46.84142365653334 19.29125097689304, 46.54047965284788 19.3399052695533 M46.54047965284788 19.3399052695533 C46.21468336478043 19.371334445635803, 45.888887076712976 19.402763621718307, 45.2962442896239 19.45993515863156 M46.54047965284788 19.3399052695533 C46.066313443213055 19.38564751352847, 45.59214723357823 19.43138975750364, 45.2962442896239 19.45993515863156 M45.2962442896239 19.45993515863156 C44.872621015846796 19.47351993248891, 44.44899774206969 19.487104706346262, 44.04687500000001 19.5 M45.2962442896239 19.45993515863156 C45.03583352358104 19.468286025039745, 44.77542275753819 19.476636891447935, 44.04687500000001 19.5 M44.04687500000001 19.5 C44.04687500000001 19.5, 44.046875 19.5, 44.046875 19.5 M44.04687500000001 19.5 C44.04687500000001 19.5, 44.046875 19.5, 44.046875 19.5 M44.046875 19.5 C22.816230495190126 19.5, 1.5855859903802525 19.5, -44.04687499999999 19.5 M44.046875 19.5 C18.77767985407048 19.5, -6.491515291859038 19.5, -44.04687499999999 19.5 M-44.04687499999999 19.5 C-44.39745678433146 19.488757524542535, -44.74803856866292 19.477515049085074, -45.29624428962389 19.45993515863156 M-44.04687499999999 19.5 C-44.52366304750907 19.48471033532802, -45.00045109501814 19.46942067065604, -45.29624428962389 19.45993515863156 M-45.29624428962389 19.45993515863156 C-45.69587570955856 19.421383196177562, -46.095507129493214 19.382831233723568, -46.54047965284787 19.3399052695533 M-45.29624428962389 19.45993515863156 C-45.740316743476065 19.417096023083705, -46.184389197328244 19.374256887535847, -46.54047965284787 19.3399052695533 M-46.54047965284787 19.3399052695533 C-46.83233353489889 19.292720597263948, -47.124187416949916 19.245535924974597, -47.77446825967676 19.140403561325773 M-46.54047965284787 19.3399052695533 C-47.02334253799189 19.261839742940815, -47.50620542313591 19.18377421632833, -47.77446825967676 19.140403561325773 M-47.77446825967676 19.140403561325773 C-48.25803619619136 19.030032335392004, -48.74160413270597 18.919661109458236, -48.993139386235384 18.862249829261074 M-47.77446825967676 19.140403561325773 C-48.169359449631195 19.050272224124512, -48.56425063958563 18.960140886923252, -48.993139386235384 18.862249829261074 M-48.993139386235384 18.862249829261074 C-49.419514025815005 18.735704074319997, -49.84588866539463 18.60915831937892, -50.19148525146059 18.506587066708043 M-48.993139386235384 18.862249829261074 C-49.27614799619712 18.77825435936694, -49.55915660615885 18.694258889472806, -50.19148525146059 18.506587066708043 M-50.19148525146059 18.506587066708043 C-50.55349413477008 18.373364451276718, -50.91550301807957 18.240141835845392, -51.3645815951478 18.074876768247425 M-50.19148525146059 18.506587066708043 C-50.4521051696136 18.410676527683624, -50.712725087766614 18.3147659886592, -51.3645815951478 18.074876768247425 M-51.3645815951478 18.074876768247425 C-51.707902873334305 17.922898622658128, -52.05122415152081 17.77092047706883, -52.50760791279238 17.568892924097174 M-51.3645815951478 18.074876768247425 C-51.67218226478077 17.938711076450574, -51.97978293441374 17.80254538465372, -52.50760791279238 17.568892924097174 M-52.50760791279238 17.568892924097174 C-52.7749413890504 17.429425220768632, -53.042274865308414 17.28995751744009, -53.61586726407678 16.990714730406097 M-52.50760791279238 17.568892924097174 C-52.73686548404119 17.449289396023154, -52.96612305529 17.329685867949134, -53.61586726407678 16.990714730406097 M-53.61586726407678 16.990714730406097 C-53.93053223763842 16.799962974256395, -54.24519721120004 16.609211218106694, -54.684805573605686 16.3427180453909 M-53.61586726407678 16.990714730406097 C-53.92937866978509 16.800662273868202, -54.242890075493385 16.610609817330303, -54.684805573605686 16.3427180453909 M-54.684805573605686 16.3427180453909 C-55.087068418917 16.062116898179642, -55.48933126422832 15.781515750968385, -55.71003034457871 15.627565626425156 M-54.684805573605686 16.3427180453909 C-54.936457965877906 16.167176230398283, -55.188110358150126 15.991634415405667, -55.71003034457871 15.627565626425156 M-55.71003034457871 15.627565626425156 C-56.010840391059666 15.387677619248116, -56.31165043754062 15.147789612071076, -56.687328708501866 14.848196188198125 M-55.71003034457871 15.627565626425156 C-55.91468645732581 15.464357822637231, -56.1193425700729 15.301150018849306, -56.687328708501866 14.848196188198125 M-56.687328708501866 14.848196188198125 C-56.95493137930247 14.60516652295569, -57.222534050103086 14.362136857713253, -57.612684736767974 14.007812326905697 M-56.687328708501866 14.848196188198125 C-57.01773490697557 14.548130020813268, -57.34814110544928 14.24806385342841, -57.612684736767974 14.007812326905697 M-57.612684736767974 14.007812326905697 C-57.787165611900015 13.82764649818561, -57.96164648703205 13.647480669465523, -58.482295942968655 13.109867360095677 M-57.612684736767974 14.007812326905697 C-57.914113495761136 13.696562385483903, -58.21554225475429 13.385312444062109, -58.482295942968655 13.109867360095677 M-58.482295942968655 13.109867360095677 C-58.66399293466459 12.896435734797915, -58.84568992636053 12.683004109500153, -59.292588908126575 12.158051136245307 M-58.482295942968655 13.109867360095677 C-58.796234438131975 12.741097340070409, -59.110172933295296 12.372327320045143, -59.292588908126575 12.158051136245307 M-59.292588908126575 12.158051136245307 C-59.44903440484346 11.948428423122635, -59.605479901560344 11.738805709999962, -60.040233964640635 11.156274872382316 M-59.292588908126575 12.158051136245307 C-59.57811232467113 11.77547576979396, -59.86363574121569 11.392900403342615, -60.040233964640635 11.156274872382316 M-60.040233964640635 11.156274872382316 C-60.25833632452887 10.821211078909974, -60.4764386844171 10.48614728543763, -60.72215887860425 10.108655082055249 M-60.040233964640635 11.156274872382316 C-60.253927041365166 10.827984921907733, -60.46762011808969 10.499694971433152, -60.72215887860425 10.108655082055249 M-60.72215887860425 10.108655082055249 C-60.921354093431205 9.754963807427249, -61.12054930825816 9.401272532799249, -61.335561474273504 9.019496659696289 M-60.72215887860425 10.108655082055249 C-60.93785338110309 9.725667651431777, -61.153547883601924 9.342680220808306, -61.335561474273504 9.019496659696289 M-61.335561474273504 9.019496659696289 C-61.4520092668821 8.777690326760924, -61.56845705949069 8.535883993825559, -61.87792114880834 7.893275190886686 M-61.335561474273504 9.019496659696289 C-61.45854208230121 8.764124795763285, -61.58152269032891 8.508752931830283, -61.87792114880834 7.893275190886686 M-61.87792114880834 7.893275190886686 C-62.020539619084474 7.541004811964096, -62.16315808936061 7.188734433041505, -62.347009229970325 6.73461856121551 M-61.87792114880834 7.893275190886686 C-62.028612884158576 7.5210636911451, -62.17930461950881 7.148852191403515, -62.347009229970325 6.73461856121551 M-62.347009229970325 6.73461856121551 C-62.49670880506697 6.283747292412607, -62.64640838016363 5.832876023609704, -62.74089813421488 5.5482879393051325 M-62.347009229970325 6.73461856121551 C-62.44633178016735 6.435474864921391, -62.545654330364364 6.136331168627271, -62.74089813421488 5.5482879393051325 M-62.74089813421488 5.5482879393051325 C-62.82787441913944 5.216609669127445, -62.914850704064 4.884931398949757, -63.05796928754556 4.339158212148136 M-62.74089813421488 5.5482879393051325 C-62.82299691407489 5.235209709862645, -62.9050956939349 4.922131480420157, -63.05796928754556 4.339158212148136 M-63.05796928754556 4.339158212148136 C-63.131954631722365 3.9592591066082568, -63.20593997589918 3.5793600010683777, -63.296919776581774 3.112197953150904 M-63.05796928754556 4.339158212148136 C-63.109424019141734 4.074949040363137, -63.160878750737915 3.810739868578138, -63.296919776581774 3.112197953150904 M-63.296919776581774 3.112197953150904 C-63.33099002847388 2.847955807407975, -63.36506028036598 2.5837136616650453, -63.45676770250937 1.872449005199809 M-63.296919776581774 3.112197953150904 C-63.34815450390627 2.7148315254633886, -63.39938923123077 2.317465097775873, -63.45676770250937 1.872449005199809 M-63.45676770250937 1.872449005199809 C-63.48012590339485 1.508626172008042, -63.50348410428033 1.1448033388162748, -63.53685621591342 0.6250057626472781 M-63.45676770250937 1.872449005199809 C-63.47778065674322 1.545155281656188, -63.498793610977074 1.217861558112567, -63.53685621591342 0.6250057626472781 M-63.53685621591342 0.6250057626472781 C-63.53685621591342 0.36940625629976986, -63.53685621591342 0.11380674995226159, -63.53685621591342 -0.6250057626472687 M-63.53685621591342 0.6250057626472781 C-63.53685621591342 0.29262095847579833, -63.53685621591342 -0.03976384569568148, -63.53685621591342 -0.6250057626472687 M-63.53685621591342 -0.6250057626472687 C-63.51253024993585 -1.0039023183142, -63.48820428395828 -1.382798873981131, -63.45676770250937 -1.8724490051997822 M-63.53685621591342 -0.6250057626472687 C-63.515562270743125 -0.9566761468376935, -63.49426832557284 -1.2883465310281184, -63.45676770250937 -1.8724490051997822 M-63.45676770250937 -1.8724490051997822 C-63.39703284255346 -2.335740783035495, -63.33729798259755 -2.799032560871208, -63.296919776581774 -3.112197953150895 M-63.45676770250937 -1.8724490051997822 C-63.40877015488206 -2.2447085064092978, -63.36077260725476 -2.616968007618813, -63.296919776581774 -3.112197953150895 M-63.296919776581774 -3.112197953150895 C-63.2169435267632 -3.5228590929828654, -63.13696727694464 -3.933520232814835, -63.05796928754556 -4.339158212148126 M-63.296919776581774 -3.112197953150895 C-63.24748703457127 -3.3660246357610912, -63.198054292560776 -3.6198513183712873, -63.05796928754556 -4.339158212148126 M-63.05796928754556 -4.339158212148126 C-62.97686703369997 -4.648436256000536, -62.895764779854375 -4.957714299852945, -62.74089813421489 -5.548287939305123 M-63.05796928754556 -4.339158212148126 C-62.96450184697859 -4.695590072074977, -62.87103440641162 -5.0520219320018285, -62.74089813421489 -5.548287939305123 M-62.74089813421489 -5.548287939305123 C-62.60814655878178 -5.948114533418463, -62.47539498334868 -6.3479411275318025, -62.34700922997033 -6.734618561215485 M-62.74089813421489 -5.548287939305123 C-62.6005475485214 -5.971001541584883, -62.4601969628279 -6.393715143864644, -62.34700922997033 -6.734618561215485 M-62.34700922997033 -6.734618561215485 C-62.198660750373506 -7.101042173942377, -62.050312270776686 -7.467465786669267, -61.87792114880834 -7.893275190886676 M-62.34700922997033 -6.734618561215485 C-62.220670375928236 -7.046677973295028, -62.09433152188615 -7.358737385374571, -61.87792114880834 -7.893275190886676 M-61.87792114880834 -7.893275190886676 C-61.74401506809472 -8.171334032619653, -61.6101089873811 -8.44939287435263, -61.335561474273504 -9.019496659696282 M-61.87792114880834 -7.893275190886676 C-61.70806379179931 -8.24598762708115, -61.53820643479029 -8.598700063275624, -61.335561474273504 -9.019496659696282 M-61.335561474273504 -9.019496659696282 C-61.10532640515106 -9.428302338751989, -60.875091336028625 -9.837108017807694, -60.72215887860425 -10.108655082055243 M-61.335561474273504 -9.019496659696282 C-61.15523140700632 -9.339690954528574, -60.97490133973913 -9.659885249360869, -60.72215887860425 -10.108655082055243 M-60.72215887860425 -10.108655082055243 C-60.52374132411164 -10.41347772832953, -60.32532376961904 -10.71830037460382, -60.04023396464064 -11.156274872382308 M-60.72215887860425 -10.108655082055243 C-60.46238192258467 -10.507742246381312, -60.20260496656509 -10.906829410707381, -60.04023396464064 -11.156274872382308 M-60.04023396464064 -11.156274872382308 C-59.786359132483035 -11.4964440190005, -59.53248430032542 -11.836613165618688, -59.29258890812659 -12.158051136245302 M-60.04023396464064 -11.156274872382308 C-59.85192973880948 -11.408585380128185, -59.663625512978314 -11.660895887874062, -59.29258890812659 -12.158051136245302 M-59.29258890812659 -12.158051136245302 C-59.02214134658381 -12.475734230935648, -58.751693785041034 -12.793417325625995, -58.48229594296866 -13.10986736009567 M-59.29258890812659 -12.158051136245302 C-58.98881758052541 -12.514878222723851, -58.68504625292423 -12.871705309202401, -58.48229594296866 -13.10986736009567 M-58.48229594296866 -13.10986736009567 C-58.18677209740519 -13.415019993598902, -57.89124825184172 -13.720172627102134, -57.612684736767996 -14.007812326905677 M-58.48229594296866 -13.10986736009567 C-58.26269954348521 -13.336618671762029, -58.04310314400176 -13.563369983428386, -57.612684736767996 -14.007812326905677 M-57.612684736767996 -14.007812326905677 C-57.40096119329672 -14.200094047188303, -57.189237649825444 -14.39237576747093, -56.68732870850189 -14.848196188198107 M-57.612684736767996 -14.007812326905677 C-57.36113117389612 -14.236266616963363, -57.10957761102425 -14.46472090702105, -56.68732870850189 -14.848196188198107 M-56.68732870850189 -14.848196188198107 C-56.40210457601837 -15.075654843720784, -56.116880443534846 -15.303113499243462, -55.71003034457872 -15.627565626425149 M-56.68732870850189 -14.848196188198107 C-56.364727576743334 -15.1054620059989, -56.04212644498478 -15.362727823799695, -55.71003034457872 -15.627565626425149 M-55.71003034457872 -15.627565626425149 C-55.372593334422845 -15.86294707729715, -55.035156324266964 -16.09832852816915, -54.684805573605715 -16.342718045390885 M-55.71003034457872 -15.627565626425149 C-55.34380283531454 -15.883030083154484, -54.977575326050356 -16.13849453988382, -54.684805573605715 -16.342718045390885 M-54.684805573605715 -16.342718045390885 C-54.277196187173466 -16.58981325082475, -53.86958680074122 -16.83690845625862, -53.61586726407679 -16.99071473040609 M-54.684805573605715 -16.342718045390885 C-54.43853063853563 -16.49201135830253, -54.19225570346555 -16.64130467121418, -53.61586726407679 -16.99071473040609 M-53.61586726407679 -16.99071473040609 C-53.23926567063664 -17.187187540478984, -52.86266407719649 -17.383660350551878, -52.50760791279239 -17.56889292409717 M-53.61586726407679 -16.99071473040609 C-53.26836894915058 -17.1720043787198, -52.92087063422437 -17.353294027033513, -52.50760791279239 -17.56889292409717 M-52.50760791279239 -17.56889292409717 C-52.126579668464636 -17.73756282505979, -51.74555142413688 -17.906232726022406, -51.364581595147804 -18.07487676824742 M-52.50760791279239 -17.56889292409717 C-52.18481149768169 -17.711785321651234, -51.862015082571 -17.8546777192053, -51.364581595147804 -18.07487676824742 M-51.364581595147804 -18.07487676824742 C-51.04137418502628 -18.19382008286869, -50.71816677490475 -18.31276339748996, -50.19148525146062 -18.506587066708033 M-51.364581595147804 -18.07487676824742 C-51.12610029576042 -18.16264009091894, -50.88761899637304 -18.250403413590465, -50.19148525146062 -18.506587066708033 M-50.19148525146062 -18.506587066708033 C-49.79551780946776 -18.624108125015994, -49.39955036747491 -18.74162918332396, -48.99313938623541 -18.862249829261067 M-50.19148525146062 -18.506587066708033 C-49.873815963397064 -18.600869643925176, -49.55614667533351 -18.69515222114232, -48.99313938623541 -18.862249829261067 M-48.99313938623541 -18.862249829261067 C-48.740246426554556 -18.919970997027434, -48.48735346687371 -18.9776921647938, -47.774468259676766 -19.140403561325773 M-48.99313938623541 -18.862249829261067 C-48.73059638443346 -18.922173556169163, -48.46805338263152 -18.98209728307726, -47.774468259676766 -19.140403561325773 M-47.774468259676766 -19.140403561325773 C-47.362273765770695 -19.207043970484467, -46.95007927186462 -19.273684379643157, -46.54047965284788 -19.3399052695533 M-47.774468259676766 -19.140403561325773 C-47.35681916352453 -19.207925828274554, -46.939170067372295 -19.275448095223332, -46.54047965284788 -19.3399052695533 M-46.54047965284788 -19.3399052695533 C-46.13318223690021 -19.37919676142296, -45.725884820952544 -19.418488253292622, -45.2962442896239 -19.45993515863156 M-46.54047965284788 -19.3399052695533 C-46.110965621297304 -19.381339971610785, -45.68145158974673 -19.42277467366827, -45.2962442896239 -19.45993515863156 M-45.2962442896239 -19.45993515863156 C-44.819373543610844 -19.4752274752836, -44.34250279759779 -19.49051979193564, -44.04687500000001 -19.5 M-45.2962442896239 -19.45993515863156 C-44.89595473611285 -19.47277166549631, -44.4956651826018 -19.485608172361058, -44.04687500000001 -19.5 M-44.04687500000001 -19.5 C-44.04687500000001 -19.5, -44.046875 -19.5, -44.046875 -19.5 M-44.04687500000001 -19.5 C-44.04687500000001 -19.5, -44.046875 -19.5, -44.046875 -19.5" stroke="#5a6acf" stroke-width="1.3" fill="none" stroke-dasharray="0 0" style="fill:#eef2ff !important;stroke:#5a6acf !important"/></g><g class="label" style="color:#1a1f4a !important" transform="translate(-51.171875, -12)"><rect/><foreignObject width="102.34375" height="24"><div style="color: rgb(26, 31, 74) !important; display: table-cell; white-space: nowrap; line-height: 1.5; max-width: 200px; text-align: center;" xmlns="http://www.w3.org/1999/xhtml"><span style="color:#1a1f4a !important" class="nodeLabel"><p>Внешняя СДО</p></span></div></foreignObject></g></g><g class="node default actor" id="my-svg-flowchart-S-3" data-look="classic" transform="translate(72.9921875, 378)"><circle class="basic label-container" style="fill:#fff8e7 !important;stroke:#a07a14 !important" r="60.7421875" cx="0" cy="0"/><g class="label" style="color:#5a4400 !important" transform="translate(-53.2421875, -24)"><rect/><foreignObject width="106.484375" height="48"><div style="color: rgb(90, 68, 0) !important; display: table-cell; white-space: nowrap; line-height: 1.5; max-width: 200px; text-align: center;" xmlns="http://www.w3.org/1999/xhtml"><span style="color:#5a4400 !important" class="nodeLabel"><p>Обучающийся<br />через СДО</p></span></div></foreignObject></g></g><g class="node default uc" id="my-svg-flowchart-UC1-4" data-look="classic" transform="translate(779.03125, 1442)"><rect class="basic label-container" style="fill:#f4faf6 !important;stroke:#2e8b57 !important" x="-95.1015625" y="-39" width="190.203125" height="78"/><g class="label" style="color:#0b3d1e !important" transform="translate(-65.1015625, -24)"><rect/><foreignObject width="130.203125" height="48"><div style="color: rgb(11, 61, 30) !important; display: table-cell; white-space: nowrap; line-height: 1.5; max-width: 200px; text-align: center;" xmlns="http://www.w3.org/1999/xhtml"><span style="color:#0b3d1e !important" class="nodeLabel"><p>UC-1<br />Создать политику</p></span></div></foreignObject></g></g><g class="node default uc" id="my-svg-flowchart-UC2-5" data-look="classic" transform="translate(779.03125, 1302)"><rect class="basic label-container" style="fill:#f4faf6 !important;stroke:#2e8b57 !important" x="-130" y="-51" width="260" height="102"/><g class="label" style="color:#0b3d1e !important" transform="translate(-100, -36)"><rect/><foreignObject width="200" height="72"><div style="color: rgb(11, 61, 30) !important; display: table; white-space: break-spaces; line-height: 1.5; max-width: 200px; text-align: center; width: 200px;" xmlns="http://www.w3.org/1999/xhtml"><span style="color:#0b3d1e !important" class="nodeLabel"><p>UC-2<br />Редактировать или удалить политику</p></span></div></foreignObject></g></g><g class="node default uc" id="my-svg-flowchart-UC3-6" data-look="classic" transform="translate(1165.078125, 1410)"><rect class="basic label-container" style="fill:#f4faf6 !important;stroke:#2e8b57 !important" x="-130" y="-51" width="260" height="102"/><g class="label" style="color:#0b3d1e !important" transform="translate(-100, -36)"><rect/><foreignObject width="200" height="72"><div style="color: rgb(11, 61, 30) !important; display: table; white-space: break-spaces; line-height: 1.5; max-width: 200px; text-align: center; width: 200px;" xmlns="http://www.w3.org/1999/xhtml"><span style="color:#0b3d1e !important" class="nodeLabel"><p>UC-3<br />Валидация политики при создании</p></span></div></foreignObject></g></g><g class="node default uc" id="my-svg-flowchart-UC4-7" data-look="classic" transform="translate(1165.078125, 617)"><rect class="basic label-container" style="fill:#f4faf6 !important;stroke:#2e8b57 !important" x="-96.8984375" y="-39" width="193.796875" height="78"/><g class="label" style="color:#0b3d1e !important" transform="translate(-66.8984375, -24)"><rect/><foreignObject width="133.796875" height="48"><div style="color: rgb(11, 61, 30) !important; display: table-cell; white-space: nowrap; line-height: 1.5; max-width: 200px; text-align: center;" xmlns="http://www.w3.org/1999/xhtml"><span style="color:#0b3d1e !important" class="nodeLabel"><p>UC-4<br />Проверить доступ</p></span></div></foreignObject></g></g><g class="node default uc" id="my-svg-flowchart-UC5-8" data-look="classic" transform="translate(779.03125, 492)"><rect class="basic label-container" style="fill:#f4faf6 !important;stroke:#2e8b57 !important" x="-130" y="-51" width="260" height="102"/><g class="label" style="color:#0b3d1e !important" transform="translate(-100, -36)"><rect/><foreignObject width="200" height="72"><div style="color: rgb(11, 61, 30) !important; display: table; white-space: break-spaces; line-height: 1.5; max-width: 200px; text-align: center; width: 200px;" xmlns="http://www.w3.org/1999/xhtml"><span style="color:#0b3d1e !important" class="nodeLabel"><p>UC-5<br />Зафиксировать событие прогресса</p></span></div></foreignObject></g></g><g class="node default uc" id="my-svg-flowchart-UC8-9" data-look="classic" transform="translate(1165.078125, 466)"><rect class="basic label-container" style="fill:#f4faf6 !important;stroke:#2e8b57 !important" x="-130" y="-51" width="260" height="102"/><g class="label" style="color:#0b3d1e !important" transform="translate(-100, -36)"><rect/><foreignObject width="200" height="72"><div style="color: rgb(11, 61, 30) !important; display: table; white-space: break-spaces; line-height: 1.5; max-width: 200px; text-align: center; width: 200px;" xmlns="http://www.w3.org/1999/xhtml"><span style="color:#0b3d1e !important" class="nodeLabel"><p>UC-8<br />Каскадная агрегация завершённости</p></span></div></foreignObject></g></g><g class="node default uc" id="my-svg-flowchart-UC9-10" data-look="classic" transform="translate(367.984375, 378)"><rect class="basic label-container" style="fill:#f4faf6 !important;stroke:#2e8b57 !important" x="-121.96875" y="-39" width="243.9375" height="78"/><g class="label" style="color:#0b3d1e !important" transform="translate(-91.96875, -24)"><rect/><foreignObject width="183.9375" height="48"><div style="color: rgb(11, 61, 30) !important; display: table-cell; white-space: nowrap; line-height: 1.5; max-width: 200px; text-align: center;" xmlns="http://www.w3.org/1999/xhtml"><span style="color:#0b3d1e !important" class="nodeLabel"><p>UC-9<br />Объяснение блокировки</p></span></div></foreignObject></g></g><g class="node default uc" id="my-svg-flowchart-UC6-11" data-look="classic" transform="translate(779.03125, 182)"><rect class="basic label-container" style="fill:#f4faf6 !important;stroke:#2e8b57 !important" x="-130" y="-51" width="260" height="102"/><g class="label" style="color:#0b3d1e !important" transform="translate(-100, -36)"><rect/><foreignObject width="200" height="72"><div style="color: rgb(11, 61, 30) !important; display: table; white-space: break-spaces; line-height: 1.5; max-width: 200px; text-align: center; width: 200px;" xmlns="http://www.w3.org/1999/xhtml"><span style="color:#0b3d1e !important" class="nodeLabel"><p>UC-6<br />Полная верификация курса</p></span></div></foreignObject></g></g><g class="node default uc" id="my-svg-flowchart-UC7a-12" data-look="classic" transform="translate(779.03125, 1110)"><rect class="basic label-container" style="fill:#f4faf6 !important;stroke:#2e8b57 !important" x="-130" y="-51" width="260" height="102"/><g class="label" style="color:#0b3d1e !important" transform="translate(-100, -36)"><rect/><foreignObject width="200" height="72"><div style="color: rgb(11, 61, 30) !important; display: table; white-space: break-spaces; line-height: 1.5; max-width: 200px; text-align: center; width: 200px;" xmlns="http://www.w3.org/1999/xhtml"><span style="color:#0b3d1e !important" class="nodeLabel"><p>UC-7a<br />Создать тестового студента</p></span></div></foreignObject></g></g><g class="node default uc" id="my-svg-flowchart-UC7b-13" data-look="classic" transform="translate(779.03125, 970)"><rect class="basic label-container" style="fill:#f4faf6 !important;stroke:#2e8b57 !important" x="-124.1875" y="-39" width="248.375" height="78"/><g class="label" style="color:#0b3d1e !important" transform="translate(-94.1875, -24)"><rect/><foreignObject width="188.375" height="48"><div style="color: rgb(11, 61, 30) !important; display: table-cell; white-space: nowrap; line-height: 1.5; max-width: 200px; text-align: center;" xmlns="http://www.w3.org/1999/xhtml"><span style="color:#0b3d1e !important" class="nodeLabel"><p>UC-7b<br />Изменить факты студента</p></span></div></foreignObject></g></g><g class="node default uc" id="my-svg-flowchart-UC7c-14" data-look="classic" transform="translate(779.03125, 830)"><rect class="basic label-container" style="fill:#f4faf6 !important;stroke:#2e8b57 !important" x="-130" y="-51" width="260" height="102"/><g class="label" style="color:#0b3d1e !important" transform="translate(-100, -36)"><rect/><foreignObject width="200" height="72"><div style="color: rgb(11, 61, 30) !important; display: table; white-space: break-spaces; line-height: 1.5; max-width: 200px; text-align: center; width: 200px;" xmlns="http://www.w3.org/1999/xhtml"><span style="color:#0b3d1e !important" class="nodeLabel"><p>UC-7c<br />Просмотреть карту доступов</p></span></div></foreignObject></g></g><g class="node default uc" id="my-svg-flowchart-UC10-15" data-look="classic" transform="translate(367.984375, 186)"><rect class="basic label-container" style="fill:#f4faf6 !important;stroke:#2e8b57 !important" x="-130" y="-63" width="260" height="126"/><g class="label" style="color:#0b3d1e !important" transform="translate(-100, -48)"><rect/><foreignObject width="200" height="96"><div style="color: rgb(11, 61, 30) !important; display: table; white-space: break-spaces; line-height: 1.5; max-width: 200px; text-align: center; width: 200px;" xmlns="http://www.w3.org/1999/xhtml"><span style="color:#0b3d1e !important" class="nodeLabel"><p>UC-10<br />Импортировать курс<br />со структурой и политиками</p></span></div></foreignObject></g></g></g></g></g><defs><filter id="my-svg-drop-shadow" height="130%" width="130%"><feDropShadow dx="4" dy="4" stdDeviation="0" flood-opacity="0.06" flood-color="#000000"/></filter></defs><defs><filter id="my-svg-drop-shadow-small" height="150%" width="150%"><feDropShadow dx="2" dy="2" stdDeviation="0" flood-opacity="0.06" flood-color="#000000"/></filter></defs></svg>